<svg xmlns="http://www.w3.org/2000/svg" viewBox="0 0 750 500"><style>.st0 { fill: #ebebeb; }
  .st1,
  .st3 { fill: #e0e0e0; }
  .st3 { display: inline; }
  .st4 { opacity: 0.13; }
  .st5 { fill: #61b508; }
  .st6 { opacity: 0.7; }
  .st7 { fill: #263238; }
  .st8 { fill: #f4d3bd; }
  .st9 { fill: #eaae94; }
  .st10 { fill: #455a64; }
  .st11 { fill: #32913d; }
  .st12 { opacity: 0.6; }
  .st13 { fill: #fff; }
  .st14 { opacity: 0.3; }
  .st15 { fill: #fafafa; }
  .st16 { fill: #b78876; }
  .st17 { fill: #aa6550; }
</style><g id="Background_Complete"><path class="st0" d="M71.6 377.6s-2.9 6.8 13 11.6 24.8 6 24.8 6 3.4 1.4 1.8 3.9c-1.6 2.5-6.7 6.3-5.1 9.7 1.7 3.5 6.1 4 12 2.1 5.9-1.8 19-5.3 20.2-5.6 1.2-.3 3 .1 2.2 1.9-.8 1.8-9.6 13.2-4 17.1s21.3-3.9 23-4.7c1.7-.8 2.6-.6 3.2.2.6.8-2.7 4.3-5.1 7.7-2.4 3.3-4.5 7.6-1.1 9.6 3.4 1.9 16 .5 34-15l7.9-7.7-2.6-10.8c-6.9-22.7-16.8-30.6-20.7-30.8-3.9-.2-4.4 4.6-4.2 8.7.2 4.1 1.1 8.8.2 9.2-.9.3-1.8.1-2.8-1.5-1-1.6-10.1-16.5-17-16.3-6.8.2-5.5 14.5-5.7 16.5-.3 2-2.1 1.3-2.9.4-.8-.9-10.1-10.8-14.1-15.5-4-4.7-7.9-6.6-11.3-4.6-3.2 2-1 8-.9 10.9 0 2.9-3.6 2.3-3.6 2.3s-8.2-3.7-24.2-8.1c-16-4.5-17.1 3-17.1 3"/><path class="st1" d="M200.6 415.6c-11.7-3.3-32.4-9.6-50.2-14.9-17.8-5.3-33.9-10-45.6-13.4-5.8-1.7-10.6-3-13.8-4-1.6-.5-2.9-.8-3.8-1.1-.4-.1-.7-.2-1-.3-.2-.1-.3-.1-.3-.1s.1 0 .3.1c.2.1.6.1 1 .3.9.2 2.2.6 3.8 1 3.3.9 8 2.2 13.9 3.9 11.7 3.3 27.8 8 45.6 13.3 17.8 5.3 38.5 11.6 50.2 15"/><path class="st1" d="M113.5 403.5s.2-.2.7-.4c.5-.2 1.1-.6 1.9-1 1.6-.8 3.9-1.9 6.5-3 2.5-1.1 4.8-2.1 6.6-2.8.8-.3 1.4-.6 2-.9.5-.2.7-.3.7-.3s-.2.2-.7.4c-.5.2-1.1.6-1.9 1-1.7.8-4 1.8-6.5 2.9-2.5 1.1-4.8 2.1-6.5 2.9-.8.4-1.4.6-2 .9-.5.3-.8.4-.8.3zM131.9 394.1c-.1 0-2.5-4.6-5.3-10.4-2.9-5.8-5.1-10.5-5-10.5.1 0 2.5 4.6 5.3 10.4 2.8 5.8 5.1 10.5 5 10.5zM158.9 403.5s-.1-.3-.2-.8c-.1-.6-.2-1.3-.4-2.2-.3-1.8-.8-4.4-1.4-7.1-.6-2.8-1.3-5.3-1.7-7.1-.2-.8-.4-1.6-.6-2.1-.1-.5-.2-.8-.2-.8s.1.3.3.8c.2.5.4 1.2.7 2.1.5 1.8 1.2 4.3 1.8 7.1.6 2.8 1.1 5.3 1.3 7.2.1.9.2 1.7.3 2.2.1.4.1.7.1.7zM144.1 415.6l.5-.5c.4-.4.9-.8 1.5-1.4 1.3-1.1 3.1-2.7 5.1-4.4 2-1.7 3.8-3.2 5.2-4.3.6-.5 1.2-.9 1.6-1.3.4-.3.6-.5.6-.4l-.5.5c-.4.4-.9.8-1.5 1.4-1.3 1.1-3.1 2.7-5.1 4.4-2 1.7-3.8 3.2-5.2 4.3-.6.5-1.2.9-1.6 1.3-.4.3-.6.5-.6.4zM166.9 426.9s.2-.3.7-.7c.5-.5 1.2-1 1.9-1.8 1.7-1.5 4-3.5 6.5-5.7 2.6-2.2 4.9-4.2 6.6-5.6.8-.7 1.5-1.2 2-1.7.5-.4.8-.6.8-.6s-.2.3-.7.7c-.5.5-1.2 1-1.9 1.8-1.7 1.5-4 3.5-6.5 5.7-2.6 2.2-4.9 4.2-6.6 5.6-.8.7-1.5 1.2-2 1.7-.6.4-.8.6-.8.6zM184.8 411.2s-.1-.4-.3-1c-.2-.7-.4-1.6-.6-2.7-.5-2.3-1.2-5.5-2.1-9-.9-3.5-1.8-6.7-2.4-8.9-.3-1.1-.6-2-.8-2.7-.2-.6-.3-1-.2-1 0 0 .2.3.4 1l.9 2.7c.7 2.3 1.6 5.4 2.5 8.9.9 3.5 1.6 6.7 2 9 .2 1.2.4 2.1.5 2.8.1.5.1.9.1.9z"/><g><path class="st0" d="M523 202.1c-14-9.4-17.4-27.2-17.1-43.3 0-2.7-.3-5.5.9-7.9 1.2-2.4 4.2-4 6.6-2.9 2 .9 2.9 3.2 4.1 5.1 1.5 2.5 3.8 4.6 6.4 5.9 1.7.9 3.8 1.4 5.5.4 2.3-1.3 2.5-4.5 2.4-7.2-.1-5-.2-9.9-.4-14.9-.1-2.7-.1-5.4.7-7.9.8-2.5 2.6-4.9 5.1-5.7 2.5-.8 5.7.7 6.3 3.3.2 1.1 0 2.2.1 3.3.1 1.1.6 2.3 1.7 2.6 1.1.3 2.1-.5 2.9-1.3 2.7-2.7 4.5-6.2 6.2-9.7 1.7-3.5 3.3-7 5.8-10 2.4-3 5.9-5.4 9.7-5.7 3.8-.3 7.9 2 9 5.7 1 3.7-1.1 7.6-3.4 10.7-3.5 4.6-7.6 8.7-12.2 12-.8.6-1.7 1.3-2 2.3-.5 1.8 1.2 3.5 2.9 4.1 2 .6 4.2.4 6.2.6 2.1.2 4.4 1.1 5.2 3 1.1 2.7-1.1 5.6-3.3 7.5-4.4 3.8-9.5 6.9-14.9 9-2 .8-4 1.4-5.6 2.8-1.6 1.4-2.5 3.8-1.5 5.7 1 1.9 3.5 2.4 5.5 2 2-.4 3.9-1.6 5.8-2.3 3.6-1.4 8.4-1.3 10.8 1.8 1.6 2.1 1.8 5 1 7.5-.7 2.5-2.3 4.7-3.9 6.7-5.8 7-13.2 12.7-21.6 15.8-8.5 3-16.4 4-24.9 1"/><path class="st1" d="M527 192c2.2-8.2 5.4-16.9 9-25.9.9-2.3 1.8-4.5 2.7-6.7.9-2.2 1.8-4.4 2.8-6.4 2-4.1 4.2-8 6.4-11.6 2.2-3.6 4.5-6.9 6.6-10 2.1-3.1 4.2-5.9 6.1-8.4 3.9-5 7.5-8.7 10.1-11.1 1.3-1.2 2.3-2.1 3-2.7.3-.3.6-.5.8-.7.2-.2.3-.2.3-.2l-.3.3c-.2.2-.5.4-.8.7-.7.6-1.7 1.6-3 2.8-2.6 2.5-6.1 6.1-10 11.2-1.9 2.5-4 5.3-6.1 8.4-2.1 3.1-4.3 6.4-6.5 10-2.2 3.6-4.4 7.4-6.4 11.5-1 2.1-1.9 4.2-2.8 6.4-.9 2.2-1.8 4.4-2.7 6.7-3.6 9-6.8 17.7-9.1 25.8"/><path class="st1" d="M541.6 152.9s-.1-.4-.3-1.1c-.2-.7-.3-1.8-.6-3.1-.4-2.7-.9-6.3-1.4-10.4-.5-4.1-1-7.7-1.5-10.4-.2-1.3-.4-2.4-.6-3.1-.1-.7-.2-1.1-.2-1.2 0 0 .2.4.4 1.1.2.7.5 1.8.7 3.1.6 2.6 1.1 6.3 1.6 10.4.5 4 .9 7.6 1.2 10.4.2 1.3.3 2.3.4 3.1.3.8.4 1.2.3 1.2zM575.8 145.9s-.5.1-1.4.2c-.9.1-2.2.2-3.7.4-3.1.4-7.5 1.1-12.2 2.1-4.7 1-9 2.1-12 2.9-1.5.4-2.7.8-3.6 1.1-.8.3-1.3.4-1.3.4s.4-.2 1.3-.5c.8-.3 2-.7 3.6-1.2 3-1 7.3-2.1 12-3.1s9.1-1.6 12.2-1.9c1.6-.2 2.9-.2 3.7-.3.9-.1 1.4-.1 1.4-.1zM527.4 191.3s-.1-.1-.2-.4c-.2-.3-.4-.7-.6-1.2-.5-1.1-1.2-2.6-2.1-4.6-1.7-3.9-3.9-9.4-6.3-15.4-2.4-6.1-4.5-11.5-6.2-15.5-.8-1.9-1.5-3.5-2-4.7-.2-.5-.4-.9-.5-1.3-.1-.3-.2-.4-.2-.5 0 0 .1.1.2.4.2.3.4.7.6 1.2.5 1.1 1.2 2.6 2.1 4.6 1.7 3.9 3.9 9.4 6.3 15.4 2.4 6.1 4.5 11.5 6.2 15.5.8 1.9 1.5 3.5 2 4.7.2.5.4.9.5 1.3.1.4.2.5.2.5zM572.7 175.8l-.4.2c-.4.1-.8.3-1.3.5-1.2.4-2.9 1-4.9 1.7-4.1 1.4-9.7 3.4-16 5.7-6.2 2.2-11.9 4.2-16 5.5-2.1.7-3.7 1.2-4.9 1.5-.5.2-1 .3-1.3.4-.3.1-.5.1-.5.1l.4-.2c.4-.1.8-.3 1.3-.5 1.2-.4 2.9-1 4.9-1.7 4.1-1.4 9.7-3.4 16-5.7 6.2-2.2 11.9-4.2 16-5.5 2.1-.7 3.7-1.2 4.9-1.5.5-.2 1-.3 1.3-.4.3 0 .5-.1.5-.1z"/></g><g><path class="st0" d="M675.9 269.2c-.1 2.7-1.7 5.2-3.7 7-2.1 1.8-4.7 2.8-7.3 3.5-5.1 1.3-11.1.3-16.1-1.2 2.1-5.5 8-8.8 11.1-10.3 4.8-2.3 15.2-3.5 16 1M642.4 286.4c2.5-1.7 6-1.7 8.7-.3 2.7 1.4 4.6 4.1 5.5 7 .4 1.4.5 2.9-.3 4.1-.7 1.1-2.2 1.5-3.5 1.4-1.3-.2-2.5-.8-3.5-1.6-3.6-2.8-6.6-6.1-6.9-10.6"/><path class="st1" d="M629.3 285.7c0-.1 1.3-.4 3.4-.6 1.1-.1 2.4-.2 3.8 0s3 .3 4.6.7c3.2.8 5.9 2.3 7.5 3.8.8.7 1.4 1.4 1.7 1.9.3.5.5.8.5.8-.1.1-.8-1.1-2.5-2.4-1.6-1.3-4.2-2.8-7.4-3.5-1.6-.4-3.1-.6-4.5-.7-1.4-.2-2.6-.2-3.7-.1-2.1.1-3.4.2-3.4.1z"/><path class="st1" d="M668.1 270.9s-.5.3-1.6.8c-1 .5-2.5 1.1-4.4 1.9-3.7 1.6-8.9 3.7-14.7 5.9-5.8 2.2-11.1 4.1-14.9 5.3-1.9.6-3.5 1.1-4.6 1.4-1.1.3-1.7.5-1.7.4 0 0 .6-.3 1.6-.7 1.2-.4 2.7-1 4.5-1.6 3.8-1.4 9.1-3.3 14.8-5.5 5.7-2.2 10.9-4.2 14.7-5.8 1.8-.7 3.3-1.3 4.5-1.7 1.2-.3 1.8-.5 1.8-.4z"/><path class="st0" d="M638.2 280.8c5.1-3.9 8.1-10.4 7.8-16.8-.1-1.6-.6-3.5-2.1-4.1-1.5-.5-3.1.6-4.2 1.9-4.4 5.2-5.2 13.2-1.9 19.1"/><path class="st1" d="M642.4 267.2v.9c0 .6-.1 1.5-.2 2.5-.3 2.1-.9 5.1-2.5 8-.8 1.4-1.8 2.7-2.9 3.6-1.1 1-2.2 1.6-3.1 2.1-1 .4-1.8.7-2.4.9-.6.2-.9.2-.9.2 0-.1 1.2-.5 3.1-1.4.9-.5 2-1.2 3-2.1 1-.9 2-2.1 2.7-3.5 1.6-2.8 2.2-5.7 2.6-7.7.3-2.2.5-3.5.6-3.5z"/></g><g><path class="st0" d="M108.3 97.3c3.2-.3 6.4 1 8.8 3.2 2.4 2.1 4.1 5 5.3 8 2.4 5.8 2.3 12.9 1.4 19.1-6.8-1.5-11.6-7.9-13.9-11.2-3.6-5.4-6.8-17.3-1.6-19.1M134 133.6c-2.4-2.7-3-6.7-1.8-10.1 1.2-3.4 4-6.1 7.3-7.6 1.5-.7 3.3-1.1 4.8-.4 1.4.7 2.2 2.3 2.2 3.9s-.6 3.1-1.3 4.4c-2.6 4.7-5.9 8.7-11.2 9.8"/><path class="st1" d="M135.5 149.2c-.1 0-.6-1.4-1.3-3.9-.3-1.2-.6-2.8-.7-4.5-.1-1.7-.1-3.5 0-5.5.3-3.9 1.7-7.3 3.2-9.4.7-1.1 1.4-1.8 1.9-2.3.5-.5.8-.7.9-.7.1.1-1.1 1.1-2.4 3.3-1.3 2.1-2.5 5.4-2.9 9.3-.2 1.9-.1 3.7-.1 5.4 0 1.7.2 3.1.5 4.4.6 2.3 1 3.8.9 3.9z"/><path class="st1" d="M111.5 106.2s.5.6 1.2 1.7 1.7 2.8 3 4.8c2.5 4.1 5.9 9.8 9.4 16.2 3.6 6.4 6.6 12.3 8.8 16.6 1.1 2.1 1.9 3.9 2.5 5.1.6 1.2.8 1.9.8 1.9s-.4-.6-1-1.8c-.7-1.3-1.6-3-2.7-5-2.2-4.2-5.4-10.1-8.9-16.4-3.6-6.3-6.8-12-9.3-16.3-1.1-2-2.1-3.7-2.8-4.9-.7-1.2-1-1.9-1-1.9z"/><path class="st0" d="M128.3 139.5c-5.4-5.3-13.5-7.7-21-6.2-1.9.4-4 1.3-4.4 3.2-.4 1.9 1.3 3.6 2.9 4.6 6.8 4.3 16.3 3.8 22.7-1.1"/><path class="st1" d="M111.6 136.9s.4-.1 1.1-.2c.7-.1 1.7-.1 3-.2 2.5 0 6.1.1 9.7 1.5 1.8.7 3.4 1.7 4.7 2.8 1.3 1.1 2.2 2.3 3 3.3.7 1.1 1.2 2 1.4 2.6.3.6.4 1 .4 1-.1.1-.8-1.4-2.2-3.4-.8-1-1.7-2.1-3-3.1s-2.8-1.9-4.6-2.6c-3.5-1.4-7-1.6-9.5-1.7-2.4.1-4 .2-4 0z"/></g><g><path class="st0" d="M345.5 465.6c-1.2-2.6-1-5.7 0-8.4 1.1-2.7 3-4.9 5.1-6.8 4.1-3.7 10.2-5.8 15.7-6.8.8 6.1-3.1 12.1-5.3 15-3.4 4.6-12.5 10.8-15.5 7M368.4 433.1c-1.5 2.8-4.8 4.5-8 4.5s-6.3-1.6-8.5-3.9c-1-1.1-1.9-2.5-1.8-3.9.2-1.4 1.3-2.5 2.6-3s2.7-.4 4.1-.2c4.7.8 9.1 2.5 11.6 6.5"/><path class="st1" d="M381 427.3c0 .1-1 1-2.9 2.3-.9.7-2.2 1.3-3.6 1.9-1.4.5-2.9 1.2-4.6 1.6-3.4.9-6.7.7-8.9.2-1.1-.3-2-.7-2.5-.9-.6-.3-.9-.5-.8-.5 0-.1 1.3.6 3.5 1.1 2.2.5 5.3.5 8.6-.3 1.6-.4 3.2-1 4.6-1.5 1.4-.5 2.6-1.1 3.5-1.7 1.9-1.5 3-2.3 3.1-2.2z"/><path class="st1" d="M352 460.2s.4-.6 1.1-1.5c.7-.9 1.8-2.3 3.2-3.9 2.7-3.3 6.5-7.8 10.8-12.7 4.3-4.9 8.3-9.2 11.3-12.3 1.5-1.5 2.7-2.8 3.6-3.6.9-.8 1.3-1.3 1.4-1.2 0 0-.4.5-1.2 1.4-.9 1-2 2.2-3.4 3.7-2.9 3.1-6.9 7.5-11.2 12.4-4.2 4.9-8.1 9.3-10.9 12.6-1.3 1.5-2.5 2.8-3.3 3.8-.9.9-1.4 1.3-1.4 1.3z"/><path class="st0" d="M375 436.2c-2.8 6.1-2.5 13.7 1 19.5.9 1.5 2.3 3 4 2.8 1.7-.2 2.6-2.1 3-3.8 1.6-7-1.6-14.8-7.6-18.8"/><path class="st1" d="M377.8 451s-.2-.3-.5-.9c-.3-.6-.6-1.4-1-2.5-.7-2.1-1.7-5.1-1.6-8.6 0-1.7.4-3.4.9-4.8s1.3-2.6 1.9-3.5c.7-.9 1.3-1.6 1.8-2 .5-.4.7-.6.8-.6.1.1-.9 1-2.2 2.9-.6.9-1.3 2.1-1.7 3.4-.5 1.4-.8 2.9-.8 4.6-.1 3.4.8 6.4 1.4 8.5.6 2.2 1.1 3.5 1 3.5z"/></g></g><g id="Stains"><g class="st4"><path class="st5" d="M48.5 242.2c-4.2-24.3 4.2-51.1 23.6-66.4 19.4-15.2 49.5-16.4 68.3-.4 13.2 11.2 19.4 28.4 27.3 43.8 7.9 15.4 19.8 31.1 36.9 33.8 14.8 2.3 29.6-5.8 44.5-3.8 14.5 1.9 26.6 13.7 30.8 27.7 4.2 14 1.1 29.5-6.4 42.1s-19 22.3-31.6 29.7c-40.5 23.8-94.2 23-134-1.9-39.8-25-63.8-73-60-119.8"/><g class="st6"><path class="st5" d="M48.5 242.2c-4.2-24.3 4.2-51.1 23.6-66.4 19.4-15.2 49.5-16.4 68.3-.4 13.2 11.2 19.4 28.4 27.3 43.8 7.9 15.4 19.8 31.1 36.9 33.8 14.8 2.3 29.6-5.8 44.5-3.8 14.5 1.9 26.6 13.7 30.8 27.7 4.2 14 1.1 29.5-6.4 42.1s-19 22.3-31.6 29.7c-40.5 23.8-94.2 23-134-1.9-39.8-25-63.8-73-60-119.8"/></g></g><g class="st4"><path class="st5" d="M283.1 459.7c13.1-9 19.3-28.8 11.1-42.4-8.3-12.4-21.2-22.3-36-24.4-14.8-2.1-31.1 4.9-37.7 18.3-4.1 8.4-4.2 18.6-.7 27.4 3.4 8.8 10.1 16 18.2 20.9 13.6 8.2 32 9.1 45.1.2z"/><g class="st6"><path class="st5" d="M283.1 459.7c13.1-9 19.3-28.8 11.1-42.4-8.3-12.4-21.2-22.3-36-24.4-14.8-2.1-31.1 4.9-37.7 18.3-4.1 8.4-4.2 18.6-.7 27.4 3.4 8.8 10.1 16 18.2 20.9 13.6 8.2 32 9.1 45.1.2z"/></g></g><g class="st4"><path class="st5" d="M710.1 376.8c-.8-21-11.2-41.9-28.7-53.7s-41.8-13.4-59.8-2.4c-11.2 6.8-19.3 17.7-26.1 28.9-3.7 6.2-7.6 12.9-14.2 15.6-8.7 3.5-18.2-1.3-27.4-3.1-12-2.4-25 .6-34.7 8.1-7.4 5.7-12.8 13.9-15.3 22.8-8 33.2 15.3 56.9 40.1 71.3 27.8 16.1 63 16.1 93.2 5.3 19.9-7 38.4-18.6 51.9-34.7s21.8-37 21-58.1z"/><g class="st6"><path class="st5" d="M710.1 376.8c-.8-21-11.2-41.9-28.7-53.7s-41.8-13.4-59.8-2.4c-11.2 6.8-19.3 17.7-26.1 28.9-3.7 6.2-7.6 12.9-14.2 15.6-8.7 3.5-18.2-1.3-27.4-3.1-12-2.4-25 .6-34.7 8.1-7.4 5.7-12.8 13.9-15.3 22.8-8 33.2 15.3 56.9 40.1 71.3 27.8 16.1 63 16.1 93.2 5.3 19.9-7 38.4-18.6 51.9-34.7s21.8-37 21-58.1z"/></g></g><g class="st4"><path class="st5" d="M662.3 197c-2.6-16.8-18.8-31.9-35.7-30.3-15.8 2.3-31.3 10.2-40.1 23.4-8.8 13.3-9.7 32.2.2 44.8 6.2 7.9 16 12.6 26 13.3 10 .7 20.1-2.3 28.5-7.9 14.3-9.2 23.7-26.5 21.1-43.3z"/><g class="st6"><path class="st5" d="M662.3 197c-2.6-16.8-18.8-31.9-35.7-30.3-15.8 2.3-31.3 10.2-40.1 23.4-8.8 13.3-9.7 32.2.2 44.8 6.2 7.9 16 12.6 26 13.3 10 .7 20.1-2.3 28.5-7.9 14.3-9.2 23.7-26.5 21.1-43.3z"/></g></g></g><g id="Character_2"><path class="st7" d="M466.5 201.2c2.2-.3 3.9-1.9 5.9-2.8 3-1.4 6.6-1.2 9.4.5 2.8 1.7 4.8 3.7 5 7l-3.7 4"/><path class="st8" d="M489.8 221.7l-5.9 35.4c-1 6-3.7 14.7-13.2 12.6-8.1-2.4-8.9-10.6-7.9-16.2.4-2.7.8-4.9.8-5.2 0 0-8.9-2.3-8-11.4.4-4.4 2-13.3 3.5-21.3 1.6-8.7 9.6-14.6 18.4-13.7l.9.1c9.2 1.6 13.1 10.4 11.4 19.7z"/><path class="st9" d="M463.6 248.3s5.7 1.1 12.1-2.1c0 0-3.5 6.2-12.4 4.4l.3-2.3z"/><path class="st7" d="M459.9 221.1c.2.2 1.4-.3 3.1-.1 1.7.2 2.8.9 3 .8.1-.1-.1-.3-.6-.7-.5-.3-1.4-.7-2.4-.8-1-.1-1.9 0-2.5.3-.5.2-.7.4-.6.5zM473.6 222.6c.2.2 1.4-.3 3.1-.1 1.7.2 2.8.9 3 .8.1-.1-.1-.3-.6-.7-.5-.3-1.4-.7-2.4-.8-1-.1-1.9 0-2.4.2-.6.3-.8.5-.7.6zM473.3 224.8c-.1.5.3 1 .9 1.1.5.1 1-.3 1.1-.8.1-.5-.3-1-.9-1.1-.5-.1-1.1.3-1.1.8zM460.3 223.4c-.1.5.3 1 .9 1.1.5.1 1-.3 1.1-.8.1-.5-.3-1-.9-1.1-.5-.1-1 .3-1.1.8zM468 231.7c0-.1-.8-.3-2.2-.6-.4-.1-.7-.2-.7-.4-.1-.3.1-.6.3-1 .4-.8.9-1.7 1.3-2.6 1.9-3.7 3.2-6.7 3.1-6.8-.1-.1-1.8 2.9-3.6 6.5-.4.9-.9 1.8-1.3 2.6-.2.4-.5.8-.3 1.4.1.3.3.5.5.6.2.1.4.1.6.1 1.4.2 2.3.3 2.3.2zM475.3 216.6c.1.4 1.3.3 2.7.7 1.4.3 2.5.9 2.8.6.1-.1-.1-.5-.5-.9s-1.1-.8-2-1c-.9-.2-1.7-.1-2.2 0-.6.1-.9.4-.8.6zM460.6 216.8c.1.3 1.3.2 2.7.4 1.4.2 2.6.6 2.8.3.1-.1-.1-.4-.6-.7-.4-.3-1.2-.6-2-.7-.9-.1-1.6 0-2.2.1-.5.2-.7.4-.7.6z"/><path class="st8" d="M488.3 228.3c.2-.1 6.4-1.2 5.5 5-.8 6.1-6.8 4-6.8 3.9.1-.3 1.3-8.9 1.3-8.9z"/><path class="st9" d="M489.2 235s.1.1.3.2c.2.1.5.2.8.1.7-.1 1.4-1.1 1.6-2.2.1-.6 0-1.1-.1-1.6s-.4-.8-.7-.9c-.3-.1-.6 0-.7.2-.1.2-.1.3-.1.3s-.1-.1 0-.4c0-.1.1-.3.3-.4.2-.1.4-.1.6-.1.5.1.8.6 1 1.1.2.5.2 1.1.1 1.8-.2 1.2-1 2.3-1.9 2.4-.4.1-.8-.1-1-.3-.2 0-.2-.2-.2-.2z"/><g><path class="st7" d="M457.4 213.6c3.9 1.5 8.4.9 11.8-1.4 2.4-1.6 4.4-4.1 7.2-4.7 1.9-.4 3.9.2 5.5 1.4 1.6 1.1 2.8 2.7 3.8 4.3-2.2 4.4-1.6 9.6-.9 14.5.1.5.2 1.1.6 1.5.7.6 1.8.3 2.5-.3 1.1-1 1.7-2.4 2.1-3.8.9-3.2 1.4-6.7 1-10-.4-3.4-1.6-6.6-3.8-9.2-2.7-3.2-6.8-5.2-11-5.5-4.2-.4-8.5.8-12.1 2.9-1.7 1-3.3 2.3-4.2 4"/></g><g><path class="st7" d="M457.9 222.1c.6-2.5.8-5.6 1.4-8.1 3.9.5 8-.4 11.1-2.8 1.6-1.3 3.1-3 5-3.6 2.6-.7 5.2.6 7.6 1.9l-.1-.1c1.2.8 2.2 1.9 3 3.1-1.4 4.8-1.8 10-1.1 15 .1.8.5 1.5 1.2 1.8 1.3.8 2.2-.1 3.2-.7.7-.4 1.7-.7 2.3-.1 1.9-3.1 3.2-6.5 4.1-10-.4 1.1.2 2.5 1.3 3s2.5.2 3.2-.8c-.6-.7-1-1.6-1.2-2.5 1.3 1.2 3.6 1 4.7-.4-.7-.6-1.3-1.3-2-1.9.9 0 1.9.1 2.8.1-2.2-.9-3.8-2.7-5.3-4.6-1.5-1.8-2.9-3.7-4.9-5-2-1.3-4.6-1.8-6.7-.6.1-3.2-2.2-6.3-5.1-7.6-2.9-1.4-8-1.8-11.2-1.1-2.5.5-5 2-8.2 4.3-1.5 1.1-3 2.3-4.3 3.7-1.9 2-5.8 5.4-9.5 4.4l.3 3.8c2 1.9 6.1.2 6.1.2s-2.4 2.4-4.6 2.3l.6 3.3s3.4.6 4.9-2l1.4 5z"/></g><g><path class="st10" d="M485.8 213.2s-.3-.5-.9-1.3c-.6-.8-1.6-2-3.1-2.9-.8-.4-1.7-.8-2.7-1-1-.2-2.1-.4-3.2-.1-2.3.7-3.9 3-6.3 4.4-2.4 1.5-5.1 2.2-7.5 2.2-.6 0-1.2 0-1.8-.1h-.7c-.2.1-.5.2-.7.3-.9.5-1.3 1.4-1.9 2.1-1.1 1.5-2.7 2.1-3.7 2.2-.5.1-.9.1-1.2 0-.3 0-.4-.1-.4-.1s.6 0 1.6-.1c1-.2 2.4-.7 3.4-2.2.5-.7 1-1.7 2-2.3.2-.1.5-.3.8-.4.3-.1.6-.1.9-.1.6 0 1.1.1 1.7.1 2.4 0 5-.7 7.3-2.2 1.2-.7 2.2-1.6 3.2-2.5 1-.8 2.1-1.6 3.3-2 1.2-.4 2.5-.2 3.5.1 1 .3 2 .7 2.8 1.1 1.6 1 2.5 2.2 3.1 3.1.3.4.5.8.6 1-.2.6-.1.7-.1.7z"/></g><g><path class="st10" d="M495.5 218.6s0 .2-.2.5c-.1.3-.4.8-.8 1.3s-1.2 1-2.1.9c-.5-.1-1-.4-1.2-.9-.3-.5-.3-1-.3-1.6l.5.1c-.3.7-1 1.1-1.7 1.2-.7.1-1.4-.3-1.8-.7-.5-.4-.8-1-1-1.5-.4-1.1-.4-2.1-.4-2.9 0-1.6-.4-2.5-.3-2.6.1 0 .6.9.7 2.5.1.8.1 1.8.5 2.7.2.5.5.9.9 1.3s.9.6 1.5.5c.6 0 1.1-.4 1.3-.9l.8-2.1-.4 2.2c-.1.9.3 1.8 1.1 1.9.7.1 1.4-.3 1.8-.7.4-.4.7-.9.9-1.1 0 .1.1-.1.2-.1z"/></g><g><path class="st10" d="M493.2 225.4s-.6.5-1.7.5-2.7-.5-3.9-1.7c-1.2-1.2-1.9-2.6-2.4-3.6-.4-1-.6-1.6-.6-1.7.1 0 .4.6.9 1.5s1.2 2.3 2.4 3.4 2.6 1.6 3.6 1.7c1 .1 1.7-.2 1.7-.1z"/></g><g><path class="st10" d="M492.9 226.5c0 .1-.6.2-1.5.1s-2.2-.4-3.5-1.2c-1.2-.8-2.1-1.8-2.6-2.6s-.6-1.4-.6-1.4c.1 0 .3.5.9 1.2.5.7 1.4 1.6 2.6 2.4 1.2.7 2.4 1.1 3.3 1.3.8.2 1.4.2 1.4.2z"/></g><g><path class="st10" d="M496.9 203.5c0 .1-.6-.1-1.5-.2s-2.3-.1-3.7.2c-1.4.3-2.6 1-3.3 1.5-.8.5-1.2 1-1.3.9 0 0 .3-.5 1-1.2.7-.6 2-1.3 3.4-1.7 1.5-.4 2.9-.3 3.8-.1 1.1.3 1.6.6 1.6.6z"/></g><g><path class="st10" d="M488.5 198.2c.1-.1.9 1.8.5 4.3-.4 2.4-1.7 4-1.8 3.9-.1-.1 1-1.7 1.3-4 .5-2.3-.1-4.2 0-4.2z"/></g><g><path class="st10" d="M452.6 209.4c0-.1.4.4 1.3.7.9.3 2.3.1 4-.5.8-.3 1.7-.6 2.7-1 1-.3 1.9-.8 2.9-1.4 2-1.1 4-2.8 6.5-3.9 1.2-.5 2.5-.9 3.8-1 1.3-.1 2.6.2 3.6.7 2.1 1.1 3.6 2.6 5.2 3.3 1.6.6 3.1.6 3.9.2.9-.4 1.2-.9 1.2-.9s-.1.1-.2.3c-.2.2-.4.5-.9.7-.9.5-2.5.6-4.1 0-1.7-.6-3.2-2.2-5.3-3.2-1-.5-2.2-.8-3.4-.7-1.2.1-2.5.4-3.7 1-2.4 1.1-4.4 2.7-6.4 3.8-1 .6-2 1.1-3 1.4-1 .3-1.9.7-2.7.9-1.7.5-3.2.7-4.1.3-.5-.2-.8-.4-1-.6-.2 0-.3-.1-.3-.1z"/></g><g><path class="st10" d="M487.5 205.8c-.1.1-.8-1.1-2.4-2.4-1.6-1.3-4.2-2.8-7.3-3.2-1.6-.2-3.1 0-4.5 0-1.4.1-2.7.2-3.7.1-1.1-.1-1.9-.3-2.5-.5-.6-.2-.8-.4-.8-.4 0-.1 1.2.6 3.3.6 1 0 2.3-.1 3.7-.2 1.4-.1 2.9-.3 4.6-.1 3.3.4 5.9 2 7.5 3.4.8.7 1.3 1.4 1.7 1.9.2.5.4.8.4.8z"/></g><g><path class="st7" d="M468.7 236.2c0-.2 1.2-.3 2.3-1.3.5-.5.9-1 1.1-1.4.3-.4.4-.7.5-.6.1 0 0 .3-.2.8s-.5 1.1-1.1 1.6c-.6.5-1.3.8-1.8.9-.5.1-.8.1-.8 0z"/></g><g><path class="st11" d="M629.6 408.1l16.4-9.3s14.9 13.5 18.1 12.1l-16.8-32.4-26.1 13.4 8.4 16.2z"/><g class="st12"><path class="st13" d="M639.4 389.5c-.2-.7.3-1.5 1-1.7.7-.2 1.5.3 1.7 1 .2.7-.4 1.7-1.1 1.8-.7.1-1.7-.5-1.6-1.2"/></g><g class="st12"><path class="st13" d="M647.3 378.5l-2.6 1.5 17.1 30.5s1.4 1.1 2.3.4l-16.8-32.4z"/></g><path class="st7" d="M646.1 399.4c.2-.1-.2-.9-.1-2 .1-1 .6-1.8.4-1.9-.1-.1-.9.6-1 1.9-.1 1.2.6 2.1.7 2zM649.3 402.1c.2 0 .1-.9.5-1.8s1-1.4.9-1.6c-.1-.2-1 .2-1.5 1.3-.5 1.2-.1 2.1.1 2.1zM654.3 401.9c0-.2-.9 0-1.6.9-.7.9-.6 1.8-.4 1.8.2 0 .4-.7.9-1.4.6-.8 1.2-1.2 1.1-1.3zM642.1 401.1c.1-.1-.5-.8-.9-1.7-.4-.9-.5-1.8-.7-1.8-.2 0-.4 1 .1 2 .6 1.2 1.5 1.6 1.5 1.5z"/><g class="st14"><path d="M632.9 406.2l2.9-1.6-8.4-15.9-2.7 1.4z"/></g><g><path class="st7" d="M638.8 402.9c.1 0-.2-.7-.9-1.6-.3-.5-.8-1-1.4-1.4-.3-.2-.6-.5-1-.7l-.6-.3c-.3-.1-.7 0-.9.4-.2.3-.1.6 0 .9.1.2.3.4.4.6.3.3.6.6.9.8.6.5 1.2.8 1.8 1 1.1.4 1.8.3 1.8.3 0-.1-.7-.2-1.6-.7-.5-.2-1-.6-1.6-1-.3-.2-.5-.5-.8-.8-.3-.3-.4-.6-.3-.8 0-.1.1-.1.2-.1s.3.1.5.2l.9.6c.6.4 1 .9 1.4 1.3.8.8 1.1 1.4 1.2 1.3z"/></g><g><path class="st7" d="M638.9 402.6c0-.1-.7-.1-1.8.4-.5.2-1.1.6-1.7 1.1-.3.3-.5.6-.8.9-.2.4-.5.8-.3 1.5.2.3.5.5.8.4.3 0 .5-.1.7-.1.4-.1.8-.3 1.1-.6.6-.5 1.1-1 1.3-1.6.5-1.1.4-1.8.3-1.8-.1 0-.1.7-.7 1.6-.3.4-.7.9-1.3 1.3-.3.2-.6.3-1 .5-.4.1-.7.1-.7 0-.1-.2 0-.6.2-.8.2-.3.4-.6.7-.9.5-.5 1-.9 1.5-1.2 1.1-.5 1.7-.6 1.7-.7z"/></g></g><g><path class="st11" d="M583 433.6l18.6-3s9.3 17.9 12.8 17.6l-4.6-36.2-29.1 3.6 2.3 18z"/><g class="st12"><path class="st13" d="M598.5 419.5c.1-.7.8-1.3 1.6-1.2s1.3.8 1.2 1.5c-.1.7-.9 1.5-1.7 1.3-.7-.2-1.4-1.1-1.1-1.7"/></g><g class="st12"><path class="st13" d="M609.7 411.9l-2.9.5 5.5 34.5s.9 1.5 2 1.2l-4.6-36.2z"/></g><path class="st7" d="M601.4 431.1c.2 0 .1-.9.6-1.9.4-1 1.1-1.5 1.1-1.7-.1-.2-1.1.2-1.6 1.4-.6 1.3-.2 2.3-.1 2.2zM603.5 434.7c.2 0 .4-.8 1.1-1.5.7-.7 1.4-1 1.4-1.1 0-.2-1-.2-1.9.7-.8.9-.8 2-.6 1.9zM608.3 436.3c0-.2-.9-.3-1.8.3s-1.2 1.5-1 1.5c.2.1.6-.5 1.4-1 .7-.5 1.4-.6 1.4-.8zM597.1 431.4c.2-.1-.2-.9-.3-1.9-.1-1 .2-1.8 0-1.9-.1-.1-.7.8-.6 1.9.1 1.2.8 2 .9 1.9z"/><g class="st14"><path d="M586.6 433l3.3-.6-2.4-17.8-3 .4z"/></g><g><path class="st7" d="M593.4 431.9c.1 0 .1-.7-.2-1.8-.2-.5-.4-1.2-.8-1.8-.2-.3-.4-.7-.7-1-.1-.2-.3-.3-.5-.5s-.7-.2-1 0c-.3.2-.3.6-.3.8 0 .3.1.5.2.7.1.4.3.8.5 1.1.4.7.9 1.2 1.3 1.5.9.7 1.6.9 1.6.9 0-.1-.6-.4-1.3-1.2-.4-.4-.8-.9-1.1-1.5-.2-.3-.3-.6-.5-1-.1-.4-.2-.7 0-.8.1 0 .1-.1.2 0l.4.4c.2.3.5.6.7.9.4.6.7 1.2.9 1.7.3.9.5 1.6.6 1.6z"/></g><g><path class="st7" d="M593.6 431.6c0-.1-.7-.3-1.8-.3-.6 0-1.3.2-2 .5-.3.2-.7.4-1 .6-.3.3-.8.6-.8 1.3 0 .4.3.6.6.7.3.1.5.1.7.1.4 0 .8 0 1.2-.2.8-.2 1.4-.6 1.8-1 .8-.8 1-1.6.9-1.6-.1 0-.4.6-1.2 1.3-.4.3-1 .6-1.6.8-.3.1-.7.1-1.1.1-.4 0-.7-.1-.7-.3 0-.2.2-.5.5-.7l.9-.6c.6-.3 1.2-.5 1.8-.6 1.1-.1 1.8 0 1.8-.1z"/></g></g><g><path class="st7" d="M506.7 333.4c-.6.2 8.8 9.3 10.3 15.4 1.8 7.4 6.8 15.8 6.8 15.8l34.6 33.2 65.2-9.5 11 20.1-78.6 21.2c-4.2 1.1-8.8.3-12.3-2.3L493 389.5l-29.1-36 42.8-20.1z"/><path class="st7" d="M459.1 356.3l4.2 15.4c11.8 24.3 34.2 70.4 40.2 73.4 8.3 4.1 84.2-11 84.2-11l-1.7-20.9-63.8 5.5-42.6-74.9-20.5 12.5z"/><path class="st10" d="M629.6 409.6s-.1.1-.4.1c-.3.1-.7.2-1.3.4-1.1.3-2.8.8-4.9 1.4-4.3 1.2-10.5 3-18.2 5.2-7.7 2.2-16.8 4.8-27 7.7-5.1 1.4-10.4 2.9-15.9 4.5l-4.2 1.2c-1.4.3-2.9.5-4.4.5-3 0-6.1-.6-8.8-2-1.4-.7-2.7-1.5-3.9-2.4-1.2-.9-2.4-1.8-3.5-2.7-2.3-1.8-4.6-3.7-6.8-5.5-4.4-3.7-8.7-7.2-12.6-10.8-7.9-7-14.8-13.6-20.4-19.2-5.6-5.7-9.9-10.5-12.7-14-.7-.9-1.3-1.7-1.8-2.3-.5-.7-.9-1.3-1.3-1.8-.3-.5-.6-.8-.8-1.1-.2-.2-.2-.4-.2-.4s.1.1.3.4c.2.3.5.6.8 1.1.4.5.8 1.1 1.3 1.7.5.7 1.2 1.4 1.9 2.3 2.8 3.4 7.2 8.2 12.8 13.9 5.6 5.6 12.5 12.2 20.5 19.1 3.9 3.5 8.2 7.1 12.6 10.7 2.2 1.8 4.5 3.6 6.8 5.5 1.2.9 2.4 1.8 3.5 2.7 1.2.9 2.4 1.7 3.8 2.4 2.7 1.3 5.7 2 8.6 1.9 1.5 0 2.9-.2 4.3-.5s2.8-.8 4.2-1.2c5.5-1.6 10.9-3.1 15.9-4.5 10.2-2.8 19.3-5.4 27-7.6 7.7-2.1 13.9-3.9 18.2-5.1 2.1-.6 3.8-1 5-1.4.6-.1 1-.3 1.3-.3.1.1.3.1.3.1zM480.4 357.2c0 .1-.4.3-.5 1 0 .3 0 .7.3 1 .3.3.8.4 1.2.2.4-.2.7-.6.7-1s-.3-.7-.6-.9c-.6-.4-1-.2-1.1-.3 0 0 .1-.1.4-.2.2-.1.6 0 .9.2.3.2.7.6.8 1.2.1.6-.4 1.2-.9 1.5-.6.3-1.3.2-1.7-.3-.4-.5-.4-1-.3-1.4.1-.4.3-.7.5-.8.2-.2.3-.2.3-.2zM513.6 348.2l-.6.6c-.4.4-1 .9-1.8 1.4-1.6 1-4.2 2.1-7.1 2.4-3 .2-5.7-.5-7.4-1.2-.9-.4-1.6-.8-2-1.1-.4-.3-.7-.5-.7-.5 0-.1 1 .6 2.8 1.3 1.8.7 4.4 1.3 7.3 1.1 2.9-.2 5.4-1.2 7-2.2 1.6-1 2.4-1.8 2.5-1.8z"/></g><g><path class="st10" d="M572.4 292.9s-45.3-17-48.1-19.5c-2.7-2.4-14.7-16-19.7-17.7 0 0-8.1-2.1-13.6-1.8l-5.8.7v-4.4l-23.9.4-.7 5.9-4.1 1.5s-9.6 20-9.6 29.1c0 9.2-4.7 62.5 4.6 72.8 1.4 1.6 7 .6 7 .6s26.8-2.9 53.5-21.5l-9.8-11.3s-3.5-23.6.6-40.5c.1-.4.2-.7.3-1.1 11.6 5.7 29.3 14 34.6 14 0 0 29.2 9.9 34.6 3.5.8-.8.1-10.7.1-10.7z"/><path class="st10" d="M461.3 257.1s-9.3.4-15.4 7.9c-6.1 7.6-16 39.9-16 39.9l-13.6-14-13 7.2s18.4 25.6 22 28.6c.9.7 4.8 2.7 6.6 2.8 8.7.8 14.6-8.1 16.4-15.5l6-30.1"/><path class="st8" d="M407.2 295.8l-14-8.3s-4.2-10-2.6-10.5 3 5.6 3 5.6l2 1s-2.7-5.1-1.8-5.6c1-.5 2.3 1 3 2.2.6.9 2.4 4.6 2.4 4.6l.9-1.3-.7-3.4s-1-2.3.1-2.3 1.1-.1 1.9 1.8c.8 1.9 1.4 3.3 1.4 3.3s4.1 2.4 4.9 2.2c2.3-.7 4 .3 4 .3s3.9 2 2.9 6.1"/><path class="st7" d="M501.9 258.4c.1 0-.3 1-.7 2.5-.4 1.6-.9 3.7-1.1 6.2-.1 2.5.1 4.7.4 6.3.3 1.6.5 2.6.5 2.6-.1 0-.4-.9-.8-2.5s-.6-3.9-.5-6.4c.1-2.5.7-4.7 1.2-6.3.4-1.6.9-2.5 1-2.4zM464.4 257.1c-.1 0-.3-1.5-.3-3.4.1-1.9.4-3.4.5-3.4.1 0 0 1.5 0 3.4s0 3.4-.2 3.4zM470 258c-.1 0-.1-1.7.1-3.8.2-2.1.4-3.8.6-3.8.1 0 .1 1.7-.1 3.8-.2 2.1-.5 3.8-.6 3.8zM477.4 257.8c-.1 0 .2-1.7.3-3.7.1-2 0-3.7.2-3.7.1 0 .5 1.7.3 3.7-.1 2.1-.6 3.7-.8 3.7zM482.9 256.4c-.1 0 .1-1.4 0-3.1 0-1.7-.3-3.1-.1-3.1.1 0 .6 1.3.6 3.1.1 1.8-.4 3.1-.5 3.1zM447.6 269.3c.1 0 0 13.1-.3 29.2s-.7 29.2-.8 29.2c-.1 0 0-13.1.3-29.2.3-16.2.7-29.2.8-29.2z"/><path class="st15" d="M446.7 300c0 .1-.8-.4-2-1.1-1.2-.7-2.8-1.7-4.8-2.4s-3.9-.9-5.2-.8c-1.4.1-2.2.5-2.2.4 0 0 .7-.5 2.1-.7 1.4-.2 3.4-.1 5.4.6 2 .7 3.7 1.8 4.8 2.6 1.3.8 1.9 1.3 1.9 1.4zM501.4 290.8s-.2.1-.5.3c-.4.2-.8.5-1.4.8-.6.4-1.3.8-2.2 1.2-.9.4-1.9 1-3 1.4-1.1.5-2.4 1.1-3.8 1.5-1.4.5-2.9 1-4.4 1.5-3.1.9-6.7 1.8-10.4 2.4-3.8.6-7.4.8-10.7.9-1.6 0-3.2 0-4.7-.1s-2.8-.2-4.1-.3c-1.2-.1-2.3-.3-3.3-.5-1-.1-1.8-.3-2.5-.5-.6-.1-1.2-.3-1.6-.3-.4-.1-.5-.1-.5-.2 0 0 .2 0 .6.1.4.1.9.2 1.6.3.7.1 1.5.3 2.5.4 1 .1 2.1.3 3.3.4 1.2.1 2.6.2 4 .3 1.5.1 3 .1 4.6.1 3.3-.1 6.9-.3 10.6-.9 3.7-.6 7.2-1.4 10.4-2.4 1.6-.5 3-.9 4.4-1.5 1.4-.5 2.6-1 3.8-1.5 1.2-.5 2.2-1 3-1.4.9-.4 1.7-.8 2.3-1.1.6-.3 1.1-.5 1.4-.7.4-.1.5-.2.6-.2zM527.7 276.3c0 .1-.8.6-2 1.7s-2.8 2.7-4.3 4.7c-1.4 2-2.4 4.1-3 5.6-.6 1.5-.8 2.5-.9 2.5 0 0 0-.3.1-.7.1-.5.2-1.1.5-1.9.5-1.6 1.4-3.7 2.9-5.8 1.5-2.1 3.1-3.7 4.4-4.7.7-.5 1.2-.9 1.6-1.1.4-.2.7-.3.7-.3zM532.7 277.9c0 .1-1 .5-2.5 1.5s-3.4 2.5-5.1 4.6c-1.7 2.1-2.8 4.3-3.4 6-.6 1.7-.8 2.8-.9 2.7 0 0 0-.3.1-.8s.2-1.2.5-2.1c.5-1.7 1.6-4 3.4-6.2 1.7-2.2 3.7-3.7 5.3-4.6.8-.5 1.4-.8 1.9-1 .5 0 .7-.1.7-.1zM501.7 286.7s-.2.1-.5.2c-.4.2-.9.4-1.5.6-.6.3-1.4.6-2.4.9-.9.3-2 .7-3.2 1.1-2.4.8-5.2 1.5-8.4 2.3-3.2.7-6.7 1.3-10.5 1.8-3.8.4-7.4.6-10.6.7-3.3 0-6.2-.1-8.7-.3-1.2-.1-2.3-.2-3.3-.3-1-.1-1.8-.2-2.5-.3-.6-.1-1.2-.2-1.6-.2-.4-.1-.5-.1-.5-.1h.6c.4 0 .9.1 1.6.2.7.1 1.5.2 2.5.2 1 .1 2.1.2 3.3.2 2.5.2 5.4.2 8.7.2 3.3-.1 6.8-.3 10.6-.7 3.7-.4 7.3-1.1 10.5-1.7 3.2-.7 6-1.4 8.4-2.2 1.2-.3 2.2-.7 3.2-1 .9-.3 1.7-.6 2.4-.8.6-.2 1.1-.4 1.5-.5.2-.2.4-.3.4-.3zM447.2 292.4c-.1.1-2.2-1.7-5.3-2.9-3.1-1.2-5.9-1.3-5.9-1.5 0-.1.7-.1 1.8 0s2.6.4 4.2 1 2.9 1.4 3.8 2.1c1 .7 1.4 1.2 1.4 1.3z"/></g><g><path class="st8" d="M587.4 289.1l-9.9 3.3-5 .4v10.7l5.1 1.8 13.8-.8s7.9 4 9.9 3.8c2-.3 2-.9 2-.9l-9.8-5.9s1.5-.5 3.8.5 6.1 3.3 7.5 2.6c1.4-.6 1.1-1.1 1.1-1.1l-7.6-4.8s6.6 2.9 7.7 2.4c1.1-.5 1.2-1.5 1.2-1.5l-4.3-3.8-6.4-5-9.1-1.7z"/><path class="st9" d="M581.9 293.5s.4.1 1.1.4c.7.3 1.6.8 2.8 1.4 1.2.6 2.6 1.3 4.1 2.2.4.2.8.5 1.1.9.3.4.5.9.6 1.4 0 .5 0 1.1-.3 1.6s-.9.8-1.4.9c-.7.2-1.5.2-2.2 0-.7-.2-1.3-.4-1.9-.7-1.2-.5-2.3-1-3.3-1.5l.3-.1c-.7.9-1.5 1.5-2.3 1.8-.8.4-1.6.4-2.2.4-.6 0-1.1-.1-1.4-.2-.3-.1-.5-.2-.5-.2 0-.1.7.2 1.9.2.6 0 1.3-.1 2.1-.5.7-.3 1.5-.9 2.1-1.8l.1-.1.2.1c1 .5 2.1 1 3.3 1.5.6.2 1.2.5 1.8.6.6.2 1.3.1 1.9 0 .5-.1.9-.3 1.1-.7.2-.3.3-.8.3-1.2-.1-.9-.7-1.5-1.5-1.9-1.5-.9-2.9-1.6-4.1-2.3-1.1-.6-2-1.1-2.8-1.5-.6-.4-1-.7-.9-.7zM598.7 298.7c-.1.1-2.1-1-4.4-2.7-.3-.3-.6-.5-.9-.8h.3c-1.1.6-2.1.7-2.8.8-.7 0-1.2-.1-1.1-.1 0-.1.4-.1 1.1-.2.7-.1 1.7-.3 2.6-.9l.2-.1.1.1c.3.2.5.5.9.7 2.2 1.8 4.1 3.1 4 3.2z"/></g><g><path class="st11" d="M615.6 375.4c-2 0-4-.3-5.9-.9-19-5.7-18-19.4-17.2-30.4.7-10.3.8-16.7-7.7-19.9-11.2-4.2-15.8-.1-22.8 6.1-8.3 7.4-18.7 16.5-43.8 12.8-13-1.9-34-8.8-59.7-30.6-15.3-12.9-24.9-24.9-25.3-25.4l3.9-3.1c.4.5 38.8 47.8 81.9 54.2 22.8 3.4 31.8-4.6 39.7-11.6 7.1-6.3 13.8-12.2 27.9-7 12.4 4.6 11.6 15.4 10.9 24.9-.8 11.1-1.5 20.7 13.7 25.3 17.1 5.1 39.6-22 53-38.2 4.8-5.8 8.1-10 10.8-12.1l3.8 3c-1.7 2-6.3 7-10.7 12.3-13.8 16.5-33.8 40.6-52.5 40.6z"/><path class="st13" d="M545.1 336s-.2.2-.6.4c-.4.3-1 .6-1.8 1-1.5.8-3.7 1.6-6.3 2.2-2.6.5-4.9.6-6.6.5-.8 0-1.5-.1-2-.2s-.7-.1-.7-.2 1.1 0 2.7 0c1.7 0 4-.1 6.5-.6s4.7-1.3 6.2-2c1.7-.7 2.6-1.2 2.6-1.1zM574.4 320.9c0 .1-.6 0-1.6-.1-1 0-2.4.1-3.8.6s-2.6 1.2-3.4 1.9c-.8.6-1.2 1.1-1.3 1 0 0 .3-.6 1-1.3.7-.7 1.9-1.6 3.4-2.1s3-.6 4-.5c1.1.2 1.7.5 1.7.5zM606.2 368.1s-.9-.1-2.2-.7c-1.3-.6-3.1-1.7-4.6-3.3-1.5-1.6-2.5-3.5-3-4.8-.5-1.4-.6-2.3-.5-2.3.1 0 .3.9.8 2.2.5 1.3 1.5 3 3 4.6 1.5 1.6 3.1 2.7 4.4 3.4 1.3.6 2.2.9 2.1.9zM675.9 321.3c.1.1-1.6 1.9-3.8 4.1-2.2 2.2-4 3.9-4.1 3.8-.1-.1 1.6-1.9 3.8-4.1 2.1-2.2 4-3.9 4.1-3.8z"/></g><g><path class="st11" d="M437.6 288.2c-2.1 2.3-5.8 2.5-8.1.4l-8.8-8 7.7-8.5 8.8 8c2.4 2.1 2.5 5.7.4 8.1z"/><path class="st7" d="M437.6 288.2s.4-.4.8-1.3.8-2.4.3-4.2c-.3-.9-.8-1.7-1.6-2.5-.8-.7-1.7-1.5-2.6-2.4-1.9-1.7-4-3.6-6.2-5.6h.3c-1.2 1.4-2.5 2.8-3.9 4.3-1.3 1.5-2.6 2.9-3.9 4.3v-.3c2.2 2 4.3 3.9 6.1 5.6.9.9 1.8 1.7 2.6 2.4s1.7 1.2 2.6 1.4c1.8.4 3.3-.2 4.1-.7 1-.6 1.4-1.1 1.4-1 0 0-.3.5-1.2 1.1-.8.6-2.4 1.2-4.3.8-.9-.2-1.9-.6-2.8-1.4-.8-.7-1.7-1.5-2.6-2.4-1.9-1.7-4-3.6-6.2-5.6l-.2-.2.2-.2c1.2-1.4 2.5-2.8 3.9-4.3 1.3-1.5 2.6-2.9 3.9-4.2l.2-.2.2.2c2.2 2 4.3 3.9 6.1 5.6.9.9 1.8 1.7 2.6 2.4.8.8 1.4 1.7 1.6 2.6.5 1.9.1 3.4-.4 4.3-.5 1.1-1 1.5-1 1.5z"/><path class="st11" d="M393.2 240.1l-15.1-12.5c-1.2-1-1.4-2.7-.4-3.9 1-1.2 2.7-1.4 3.9-.4l15.1 12.5-3.5 4.3zM379 258.4l-15.1-12.5c-1.2-1-1.4-2.7-.4-3.9 1-1.2 2.7-1.4 3.9-.4l15.1 12.5-3.5 4.3z"/><g class="st12"><path class="st13" d="M393.2 240.1l-15.1-12.5c-1.2-1-1.4-2.7-.4-3.9 1-1.2 2.7-1.4 3.9-.4l15.1 12.5-3.5 4.3z"/></g><g class="st12"><path class="st13" d="M379 258.4l-15.1-12.5c-1.2-1-1.4-2.7-.4-3.9 1-1.2 2.7-1.4 3.9-.4l15.1 12.5-3.5 4.3z"/></g><path class="st7" d="M393.2 240.1s.1-.1.2-.3c.2-.2.4-.5.7-.9.6-.8 1.5-1.9 2.5-3.2v.2c-1.9-1.5-4.3-3.5-7.1-5.8-1.4-1.2-2.9-2.4-4.5-3.7-.8-.6-1.6-1.3-2.4-2-.4-.3-.8-.7-1.2-1-.4-.3-.8-.5-1.3-.6-.8-.1-1.7.2-2.2.9-.5.6-.7 1.5-.5 2.3.1.4.3.7.5 1 .2.3.6.5.9.8.6.5 1.3 1.1 1.9 1.6 2.4 2 4.6 3.9 6.5 5.5 1.8 1.5 3.3 2.8 4.4 3.7.5.4.9.8 1.2 1 .3.4.4.5.4.5s-.1-.1-.4-.3c-.3-.3-.7-.6-1.2-.9-1.1-.9-2.6-2.1-4.5-3.6-1.9-1.6-4.2-3.4-6.7-5.4-.6-.5-1.3-1-1.9-1.6-.3-.3-.7-.5-1-.9-.3-.3-.5-.8-.6-1.2-.2-.9 0-2 .6-2.7.6-.8 1.7-1.2 2.7-1 .6.1 1.1.3 1.6.7.4.3.8.7 1.2 1 .8.7 1.6 1.3 2.4 2 1.6 1.3 3 2.5 4.4 3.7 2.7 2.3 5.1 4.3 7 5.9l.1.1-.1.1c-1.1 1.3-2 2.4-2.7 3.2-.3.3-.5.6-.7.8-.1.1-.2.1-.2.1zM379 258.4s.1-.1.2-.3c.2-.2.4-.5.7-.9.6-.8 1.5-1.9 2.5-3.2v.2c-1.9-1.5-4.3-3.5-7.1-5.8-1.4-1.2-2.9-2.4-4.5-3.7-.8-.6-1.6-1.3-2.4-2-.4-.3-.8-.7-1.2-1-.4-.3-.8-.5-1.3-.6-.8-.1-1.7.2-2.2.9-.5.6-.7 1.5-.5 2.3.1.4.3.7.5 1 .2.3.6.5.9.8.6.5 1.3 1.1 1.9 1.6 2.4 2 4.6 3.9 6.5 5.5 1.8 1.5 3.3 2.8 4.4 3.7.5.4.9.8 1.2 1 .3.4.4.5.4.5s-.1-.1-.4-.3c-.3-.3-.7-.6-1.2-.9-1.1-.9-2.6-2.1-4.5-3.6-1.9-1.6-4.2-3.4-6.7-5.4-.6-.5-1.3-1-1.9-1.6-.3-.3-.7-.5-1-.9-.3-.3-.5-.8-.6-1.2-.2-.9 0-2 .6-2.7.6-.8 1.7-1.2 2.7-1 .6.1 1.1.3 1.6.7.4.3.8.7 1.2 1 .8.7 1.6 1.3 2.4 2 1.6 1.3 3 2.5 4.4 3.7 2.7 2.3 5.1 4.3 7 5.9l.1.1-.1.1c-1.1 1.3-2 2.4-2.7 3.2-.3.3-.5.6-.7.8-.1 0-.2.1-.2.1z"/><g><path class="st11" d="M427.6 256l.4-.5c1.9-2.3 1.6-5.6-.7-7.5-2-1.6-4.8-1.6-6.7-.1l-22.2-18.5-25.4 30.3 22.7 18c-1.4 2.2-1 5.3 1.1 7 2.2 1.9 5.5 1.6 7.4-.6 6.6 5 16.1 3.9 21.3-2.7l3.6-4.5c5.3-6.3 4.5-15.5-1.5-20.9z"/><path class="st7" d="M427.6 256l.2.2.5.5c.2.2.5.5.8.9.2.2.3.4.5.6.2.2.3.5.5.7.7 1 1.5 2.4 2 4.2.5 1.7.8 3.9.5 6.2-.3 2.3-1.1 4.9-2.8 7.1-.8 1.2-1.8 2.2-2.7 3.4-.9 1.2-1.9 2.4-3.1 3.5-2.3 2.2-5.6 3.8-9.3 4.1-3.6.3-7.5-.7-10.7-3.1h.3c-.9 1-2.2 1.7-3.6 1.9-1.4.2-3-.3-4.1-1.2-1-.8-1.7-2-1.9-3.4-.2-1.3 0-2.8.8-4l.1.3c-5.5-4.4-11.5-9.1-17.6-13.9-1.7-1.4-3.4-2.7-5.1-4.1l-.2-.2.2-.2c9.2-11 17.9-21.3 25.4-30.3l.1-.2.2.1c8.8 7.4 16.3 13.7 22.1 18.5h-.2c1-.8 2.3-1.2 3.5-1.2 1.2 0 2.3.4 3.1 1 1.7 1.2 2.3 3.1 2.2 4.5 0 1.4-.6 2.4-1 3-.2.3-.4.5-.5.6-.1.4-.2.5-.2.5l.6-.9c.4-.6.9-1.6.9-3 0-1.3-.6-3.1-2.2-4.3-.8-.6-1.8-1-3-1-1.1 0-2.3.3-3.3 1.1l-.1.1-.1-.1c-5.8-4.8-13.3-11.1-22.2-18.4h.3c-7.5 9-16.1 19.3-25.3 30.4v-.3c1.7 1.3 3.4 2.7 5.1 4.1 6.1 4.8 12 9.5 17.5 14l.2.1-.1.2c-.7 1.1-1 2.4-.7 3.6.2 1.2.9 2.3 1.8 3.1 1.1.9 2.5 1.3 3.8 1.1 1.3-.1 2.5-.8 3.4-1.7l.1-.2.2.1c3.1 2.3 6.9 3.3 10.4 3 3.5-.3 6.7-1.8 9-4 1.2-1.1 2.1-2.3 3-3.5.9-1.2 1.9-2.3 2.7-3.4 1.6-2.2 2.4-4.7 2.8-7 .3-2.3 0-4.4-.5-6.1-.5-1.7-1.2-3.1-1.9-4.1-.2-.3-.3-.5-.5-.7-.2-.2-.3-.4-.5-.6-.3-.4-.6-.7-.8-.9l-.5-.5c0-.2-.1-.2-.1-.2z"/></g><g><path transform="rotate(39.592 393.184 251.632)" class="st1" d="M383 249.7h20.3v4H383z"/></g><g><path class="st7" d="M427.6 256s-.3.4-.8 1.2c-.6.7-1.4 1.8-2.4 3.1-2.1 2.6-5 6.2-8.3 10-3.2 3.9-6.2 7.3-8.4 10-1 1.2-1.9 2.2-2.5 3-.6.7-1 1.1-1 1.1s.3-.4.8-1.2c.6-.7 1.4-1.8 2.4-3.1 2.1-2.6 5-6.2 8.3-10 3.2-3.9 6.2-7.3 8.4-9.9 1-1.2 1.9-2.2 2.5-3 .7-.9 1-1.3 1-1.2z"/></g><g><path class="st7" d="M420.6 247.9s-.3.5-.9 1.2c-.6.8-1.5 1.9-2.6 3.3-2.2 2.7-5.4 6.5-8.9 10.6s-6.6 7.7-9 10.5c-1.1 1.3-2 2.4-2.7 3.2-.7.7-1 1.1-1.1 1.1s.3-.5.9-1.2c.6-.8 1.5-1.9 2.6-3.3 2.2-2.7 5.4-6.5 8.9-10.6s6.6-7.7 9-10.5c1.1-1.3 2-2.4 2.7-3.2.7-.8 1.1-1.2 1.1-1.1z"/></g></g></g><g id="Character_1_1_"><path class="st16" d="M321 167.5c-.1.3-11.2 8.7-11.2 8.7l-.2 7.1 5.7.8 8.1-4.6 5.5-.3s3.4 1.8 4 2c1.5.5 2.3-.9 2.3-.9l-5-3.6s5.5 3.1 6.1 2.7c.5-.4.8-1.8-.5-2.7 0 0 1.7.9 2.8.2 1.1-.7.7-1.6.7-1.6l-7.3-6.6c-.9-.8-2.2-1.3-3.4-1.3l-7.6.1z"/><path class="st17" d="M321.9 170.6s0 .3-.1.8c-.1.6-.2 1.4-.4 2.3l-.1-.2c1.2-.1 2.6-.2 4.2-.3.8 0 1.8-.1 2.7.4.5.2.8.6 1.1 1.1.2.5.3 1.1.1 1.6v.1h-.1c-1.3.8-3 .6-4.4.7-1.2.1-2.2.4-3.1 1.1-.9.7-1.6 1.5-2.3 2.2-.7.8-1.5 1.5-2.3 1.9-.8.5-1.7.7-2.5.7-1.6 0-2.9-.5-3.7-.8-.8-.3-1.3-.5-1.2-.6 0 0 .5.1 1.3.4.8.2 2.1.7 3.6.6.8 0 1.6-.2 2.3-.7.8-.5 1.5-1.1 2.2-1.9.7-.7 1.4-1.6 2.3-2.3.9-.7 2.1-1.2 3.4-1.2 1.6-.1 3.1.1 4.2-.6l-.1.1c.4-.8-.2-1.7-.9-2.1-.8-.4-1.7-.4-2.5-.4-1.6.1-3 .1-4.2.2h-.2v-.2c.2-.9.4-1.7.5-2.3.1-.4.2-.6.2-.6z"/><path class="st17" d="M336 176.8s-.8-.2-1.9-1.1c-1.1-.8-2.3-2.3-3.9-3.5-.4-.3-.8-.5-1.2-.5-.4-.1-.9 0-1.4 0h-2.3c-1.3 0-2.2-.1-2.2-.1 0-.1.8-.1 2.2-.2.7 0 1.5-.1 2.3-.1h1.4c.5 0 1 .3 1.5.6 1.7 1.2 2.8 2.7 3.8 3.6 1.1.8 1.8 1.2 1.7 1.3z"/><path class="st11" d="M336.6 388.5l-.3 17.5s17.7 6.1 18 9.4l-33.9.7-.7-27.3 16.9-.3z"/><g class="st12"><path class="st13" d="M325.8 404.7c-.7.2-1.1.9-.9 1.6.2.7.9 1.1 1.6.9.7-.2 1.2-1.1 1-1.7-.2-.6-1.2-1.1-1.8-.8"/></g><g class="st12"><path class="st13" d="M320.3 416v-2.8l32.5.4s1.5.6 1.4 1.7l-33.9.7z"/></g><path class="st7" d="M336.8 405.8c0 .2-.8.3-1.6.8s-1.2 1.3-1.4 1.2c-.2 0 .1-1 1.1-1.7s2-.5 1.9-.3zM340.4 407.2c0 .2-.7.5-1.2 1.2-.6.7-.7 1.5-.9 1.5-.2 0-.3-.9.4-1.8.7-1 1.7-1.1 1.7-.9zM342.5 411.4c-.1 0-.4-.8 0-1.7.4-.9 1.2-1.3 1.2-1.2.1.1-.4.6-.7 1.4-.3.8-.3 1.5-.5 1.5zM336.5 401.8c-.1.2-.8-.1-1.8 0-.9.1-1.7.4-1.7.3-.1-.1.6-.7 1.7-.8 1-.2 1.8.4 1.8.5z"/><g class="st14"><path d="M336.5 391.9v3.2l-16.7.1-.1-2.8z"/></g><g><path class="st7" d="M336.4 398.3c0 .1-.6.2-1.7 0-.5-.1-1.1-.2-1.8-.5-.3-.1-.7-.3-1-.5-.2-.1-.3-.2-.5-.4s-.3-.6-.1-.9c.2-.3.5-.4.7-.4.3 0 .5 0 .6.1.4.1.7.2 1.1.3.7.3 1.2.6 1.6 1 .8.7 1.1 1.3 1 1.4-.1.1-.5-.5-1.3-1-.4-.3-.9-.6-1.5-.8-.3-.1-.6-.2-1-.3-.4-.1-.7-.1-.8.1v.2c.1.1.2.2.4.3.3.2.6.4.9.5.6.3 1.2.5 1.7.6 1.1.1 1.7.2 1.7.3z"/></g><g><path class="st7" d="M336.2 398.5c-.1 0-.4-.6-.5-1.6 0-.5 0-1.2.2-1.9.1-.3.2-.7.4-1 .2-.3.4-.8 1.1-.9.3 0 .6.2.7.5.1.2.1.4.2.6.1.4.1.8 0 1.1-.1.7-.4 1.3-.7 1.8-.6.9-1.3 1.1-1.3 1-.1-.1.5-.4 1-1.3.2-.4.5-1 .5-1.6 0-.3 0-.6-.1-1s-.2-.6-.3-.6c-.2 0-.5.3-.6.6-.2.3-.3.6-.4.9-.2.6-.3 1.2-.3 1.7 0 1.1.2 1.7.1 1.7z"/></g><g><path class="st7" d="M274.8 289.6c.8 1.2 37.7 39.5 37.7 39.5s-4.6 17.6-2.9 32.9c1.7 15.3 6.6 39.7 6.6 39.7l26.7-2.1-7.3-83-29.2-38.6-31.6 11.6z"/></g><g><path class="st11" d="M345.8 369.1l3.3 17.2s18.6 2.4 19.5 5.6l-33.1 7.6-6.2-26.6 16.5-3.8z"/><g class="st12"><path class="st13" d="M338.5 387.2c-.6.3-.9 1.1-.6 1.8.3.6 1.1.9 1.7.6.6-.3 1-1.3.6-1.9-.4-.6-1.4-.9-1.9-.4"/></g><g class="st12"><path class="st13" d="M335.5 399.4l-.5-2.7 31.9-6.2s1.6.3 1.7 1.4l-33.1 7.5z"/></g><path class="st7" d="M349.6 386c0 .2-.8.4-1.4 1.1-.7.7-.9 1.5-1.1 1.4-.2 0-.1-1 .7-1.9.7-.7 1.8-.7 1.8-.6zM353.4 386.7c.1.1-.6.6-1 1.4-.4.8-.4 1.6-.5 1.6-.1.1-.5-.9 0-1.9.5-1 1.4-1.3 1.5-1.1zM356.3 390.4c-.1.1-.5-.7-.3-1.7s.9-1.5 1-1.4c.1.1-.3.7-.4 1.5-.3.8-.2 1.5-.3 1.6zM348.4 382.2c0 .2-.8.1-1.7.4-.9.3-1.5.7-1.7.6-.1-.1.4-.9 1.5-1.2 1.1-.3 1.9.1 1.9.2z"/><g class="st14"><path d="M346.4 372.5l.6 3.1-16.3 3.6-.6-2.8z"/></g><g><path class="st7" d="M347.7 378.7c0 .1-.6.3-1.7.4-.5 0-1.2 0-1.9-.1-.3-.1-.7-.2-1.1-.3-.2-.1-.4-.1-.6-.3-.2-.1-.4-.5-.3-.8.1-.3.4-.5.6-.5.2-.1.5-.1.6-.1.4 0 .8 0 1.1.1.7.1 1.3.4 1.8.7.9.5 1.3 1.1 1.3 1.1-.1.1-.6-.4-1.5-.8-.5-.2-1-.4-1.7-.5-.3-.1-.7-.1-1-.1-.4 0-.7.1-.7.2s0 .1.1.2.3.1.4.2c.3.1.7.2 1 .3.6.2 1.2.2 1.7.2 1.2.2 1.8.1 1.9.1z"/></g><g><path class="st7" d="M347.5 379c-.1 0-.5-.5-.8-1.5-.1-.5-.2-1.2-.2-1.9 0-.4.1-.7.2-1.1.1-.4.3-.9.9-1.1.3-.1.7.1.8.3.2.2.2.4.3.6.1.4.2.8.3 1.1.1.7-.1 1.4-.3 1.9-.5 1-1.1 1.4-1.1 1.3-.1-.1.4-.5.7-1.4.2-.5.2-1 .2-1.7 0-.3-.1-.6-.2-1-.1-.3-.3-.6-.5-.5-.2 0-.4.4-.5.7-.1.3-.2.7-.2 1-.1.6 0 1.2.1 1.7.1 1 .4 1.6.3 1.6z"/></g></g><g><path class="st7" d="M208.9 263.4s-2.5 15.8 7.1 26.2c9.6 10.3 19.9 14.9 38.1 14.1 18.2-.8 57.5.1 57.5.1s1.7 21 6.2 38.2c4.5 17.2 13.6 43 13.6 43l17.8-1.7s-4.8-93.6-6.1-101.8c-1.2-8.3-15-12.5-22.5-14.9-7.4-2.5-50.2-11-50.2-11l-38.8-5.4-22.7 13.2z"/><path class="st10" d="M349.2 383.2h-.3c-.2 0-.5 0-.9.1-.8.1-2.1.1-3.6.3-3.2.2-7.8.5-13.6.9h-.1v-.1c-2.4-7.7-5.5-17.6-9.1-29.1-1.8-5.7-3.7-11.9-5.7-18.3-1-3.2-2.1-6.5-2.8-9.9-.8-3.4-1.3-7-1.5-10.6-.2-4.3-.1-8.5.7-12.5l.2.3c-10.8-.2-21.1-.3-30.3-.4-4.6 0-9 0-13 .1-4.1 0-7.8.2-11.3.2-6.9 0-12.4-.3-16.2-.7-1.9-.2-3.4-.3-4.3-.4-.5-.1-.8-.1-1.1-.1-.3 0-.4-.1-.4-.1h.4c.3 0 .6.1 1.1.1 1 .1 2.5.2 4.3.4 3.8.3 9.3.6 16.2.5 3.4 0 7.2-.2 11.3-.3 4.1-.1 8.4-.1 13-.1 9.2 0 19.4.1 30.3.3h.3l-.1.3c-.8 3.9-.9 8.1-.7 12.4.2 3.6.7 7.1 1.5 10.5.7 3.4 1.8 6.7 2.8 9.9 2 6.4 3.9 12.6 5.7 18.3 3.5 11.5 6.6 21.5 9 29.1l-.2-.1c5.8-.3 10.5-.6 13.6-.8 1.6-.1 2.8-.1 3.6-.2h.9c.2-.1.3-.1.3 0z"/></g><g><path class="st10" d="M321 292.9c.1.1-2.1 2.2-4.4 5.3-2.3 3-3.7 5.7-3.8 5.7-.1 0 .2-.7.8-1.8.6-1.1 1.5-2.6 2.6-4.1 1.1-1.5 2.3-2.8 3.2-3.7.9-.9 1.5-1.4 1.6-1.4z"/></g><g><path class="st10" d="M325.8 294.7c.1.2-3.4 1.1-7 3.6s-5.7 5.4-5.8 5.3c0 0 .4-.8 1.3-1.9.9-1.1 2.4-2.5 4.2-3.8 1.8-1.3 3.7-2.1 5-2.6 1.4-.5 2.3-.7 2.3-.6z"/></g><g><path class="st10" d="M246.4 168.5c1.3.7 28.6 17.4 29.9 17.4 1.3 0 33.6-11.8 33.6-11.8l6.6 10.2s-28.3 21.8-37.6 22.1c-9.3.3-24-7.1-24-7.1l-8.5-30.8zM189.6 177.7s-34 34.6-33.6 43.4c.4 8.8 4.6 13.6 7.3 14.8 3.8 1.6 46.3-3.6 46.3-3.6l2.5-16.6c-7-1.4-15.9-2.4-25.5-3.4 4.3-4.5 9.1-7.9 15-8.9l10.2-11.1c0-.1-12.6-16.8-22.2-14.6z"/><path class="st10" d="M187.8 188s-1.6-7.5 2-10.5c6-5 11.1-7.3 15.5-9.4 5-2.5 10.3-5.4 10.3-5.4l30.9 5.7s16.5 26.3 16.1 32.8c-.3 6.5-4.5 10.5-4.5 10.5s-2.2 10.1 2.3 21.1c3.7 9.2 10.2 22.4 10.2 22.4s-35.4-5.7-52.1 2.5c-9 4.4-9.8 11.4-9.8 11.4l-1.3-38.5-6.9-23.6-12.7-19z"/><path class="st7" d="M211.2 215.4s-.2-.1-.5-.1c-.3-.1-.8-.1-1.4-.2-1.2-.2-2.9-.4-5.1-.6-4.3-.5-10.2-1.1-16.8-1.7-.4 0-.8-.1-1.1-.1l-.6-.1.5-.4c2.5-2 4.8-3.8 7-5.5 2.2-1.6 4.6-2.5 6.6-2.9 2-.4 3.7-.4 4.9-.3.6.1 1 .1 1.3.2.3.1.4.1.4.1 0 .1-2.5-.5-6.5.4-2 .5-4.3 1.4-6.5 3-2.1 1.7-4.5 3.6-7 5.6l-.1-.4c.4 0 .7.1 1.1.1 6.6.6 12.5 1.3 16.8 1.9 4.4.2 7.1.7 7 1z"/><path class="st7" d="M174.7 213s.4-.6 1.4-1.2c1-.6 2.5-1.3 4.2-1.4 1.8-.1 3.3.4 4.4.9 1 .5 1.5 1 1.5 1.1 0 .1-.6-.3-1.6-.8-1-.4-2.5-.8-4.2-.7-1.7.1-3.1.6-4.1 1.2-1.1.5-1.6.9-1.6.9zM207 191.9c-.1 0-.4-1.3-1.1-3.2-.8-2-2-4.7-4.1-7-1.1-1.2-2.3-2.1-3.5-2.8-.3-.2-.6-.3-.9-.4l-.9-.3c-.6-.2-1.1-.3-1.7-.4-1-.2-1.9-.2-2.5-.2h-.9s.3-.1.9-.1c.6-.1 1.5-.1 2.5 0 .5.1 1.1.2 1.7.4l.9.3c.3.1.6.3.9.4 1.3.7 2.5 1.6 3.7 2.8 2.2 2.5 3.4 5.2 4.1 7.3.3 1 .6 1.9.7 2.4.2.4.2.8.2.8zM257.1 212.8s.4-.5 1.1-1.3c.7-.9 1.6-2.2 2.3-4 .7-1.8 1.3-4.1 1.2-6.7 0-2.6-.9-5.4-2.4-7.9-1.6-2.6-3.5-4.7-5.2-6.7-1.7-2-3.1-4-3.9-5.8-.9-1.8-1.3-3.4-1.5-4.5-.1-.6-.1-1-.1-1.3v-.4s0 .6.2 1.7.6 2.6 1.6 4.4c.9 1.7 2.3 3.7 4 5.6 1.7 2 3.6 4.2 5.2 6.8 1.6 2.6 2.5 5.5 2.5 8.2.1 2.7-.5 5-1.3 6.9-.8 1.9-1.7 3.2-2.5 4l-.9.9c-.1 0-.3.1-.3.1z"/><path d="M203.4 214c-.7-2.2.6-4.9 2.8-5.6 1.2-.4 2.5-.3 3.7-.5.8-.1 1.6-.5 1.8-1.3.2-1-.8-1.7-1.7-2.1-3.7-1.6-7.9-1.7-11.7-.3 2.1 3 3.4 6 3.6 9.7M250.1 179.8c-1.6-3.2 4.2 5.8 6.9 8.1s5.5 4.6 7.8 7.3c2.2 2.8 3.9 5.9 3.6 9.4l-6.4-2.3s.8-5.2-2-9c-2.9-3.7-9.2-12.3-9.9-13.5zM186.2 212c-1.8-1.9-4.5-2.7-7.1-3-1.6-.2-3.2-.2-4.7.3s-2.9 1.6-3.3 3.2c-.1.5-.2 1 .1 1.4.3.4 1 .5 1.5.3s.9-.5 1.4-.8c3.4-2.5 8.1-3 11.9-1.3"/><path class="st7" d="M196.7 187.5c0 1.2-.9 2.1-2.1 2.1s-2.1-.9-2.1-2.1c0-1.2.9-2.1 2.1-2.1s2.1.9 2.1 2.1zM208 173.5c0 1.2-.9 2.1-2.1 2.1s-2.1-.9-2.1-2.1c0-1.2.9-2.1 2.1-2.1s2.1 1 2.1 2.1zM230.1 174.4c0 1.2-.9 2.1-2.1 2.1s-2.1-.9-2.1-2.1.9-2.1 2.1-2.1 2.1.9 2.1 2.1zM247.2 173.1c0 1.2-.9 2.1-2.1 2.1s-2.1-.9-2.1-2.1.9-2.1 2.1-2.1 2.1.9 2.1 2.1zM275.4 198c0 1.2-.9 2.1-2.1 2.1-1.2 0-2.1-.9-2.1-2.1s.9-2.1 2.1-2.1c1.1 0 2.1 1 2.1 2.1zM258.2 195.9c0 1.2-.9 2.1-2.1 2.1-1.2 0-2.1-.9-2.1-2.1 0-1.2.9-2.1 2.1-2.1 1.1 0 2.1 1 2.1 2.1zM261.8 181.9c0 1.2-.9 2.1-2.1 2.1s-2.1-.9-2.1-2.1.9-2.1 2.1-2.1 2.1 1 2.1 2.1z"/><circle class="st7" cx="285.5" cy="187.7" r="2.1"/><path class="st7" d="M302.2 189.6c0 1.2-.9 2.1-2.1 2.1s-2.1-.9-2.1-2.1c0-1.2.9-2.1 2.1-2.1s2.1.9 2.1 2.1zM249.4 212.1c0 1.2-.9 2.1-2.1 2.1-1.2 0-2.1-.9-2.1-2.1 0-1.2.9-2.1 2.1-2.1 1.1 0 2.1.9 2.1 2.1zM257 224.1c0 1.2-.9 2.1-2.1 2.1-1.2 0-2.1-.9-2.1-2.1s.9-2.1 2.1-2.1c1.2 0 2.1.9 2.1 2.1zM241.3 232.1c0 1.2-.9 2.1-2.1 2.1s-2.1-.9-2.1-2.1.9-2.1 2.1-2.1 2.1.9 2.1 2.1zM231.1 245.3c0 1.2-.9 2.1-2.1 2.1-1.2 0-2.1-.9-2.1-2.1s.9-2.1 2.1-2.1c1.2 0 2.1 1 2.1 2.1zM256.1 243.1c0 1.2-.9 2.1-2.1 2.1-1.2 0-2.1-.9-2.1-2.1s.9-2.1 2.1-2.1c1.1 0 2.1.9 2.1 2.1zM215.2 255c0 1.2-.9 2.1-2.1 2.1s-2.1-.9-2.1-2.1c0-1.2.9-2.1 2.1-2.1s2.1.9 2.1 2.1zM224 222c0 1.2-.9 2.1-2.1 2.1-1.2 0-2.1-.9-2.1-2.1 0-1.2.9-2.1 2.1-2.1 1.2 0 2.1.9 2.1 2.1zM216.9 237.3c0 1.2-.9 2.1-2.1 2.1-1.2 0-2.1-.9-2.1-2.1 0-1.2.9-2.1 2.1-2.1 1.2 0 2.1 1 2.1 2.1zM242.6 190.4c0 1.2-.9 2.1-2.1 2.1s-2.1-.9-2.1-2.1c0-1.2.9-2.1 2.1-2.1s2.1.9 2.1 2.1zM229.5 207.2c0 1.2-.9 2.1-2.1 2.1s-2.1-.9-2.1-2.1c0-1.2.9-2.1 2.1-2.1s2.1.9 2.1 2.1zM216.9 193.8c0 1.2-.9 2.1-2.1 2.1-1.2 0-2.1-.9-2.1-2.1s.9-2.1 2.1-2.1c1.2 0 2.1 1 2.1 2.1zM165 226.4c0 1.2-.9 2.1-2.1 2.1s-2.1-.9-2.1-2.1c0-1.2.9-2.1 2.1-2.1s2.1 1 2.1 2.1zM174.8 199.8c0 1.2-.9 2.1-2.1 2.1s-2.1-.9-2.1-2.1c0-1.2.9-2.1 2.1-2.1s2.1.9 2.1 2.1zM193.5 229.4c0 1.2-.9 2.1-2.1 2.1s-2.1-.9-2.1-2.1c0-1.2.9-2.1 2.1-2.1s2.1.9 2.1 2.1zM206.3 219.6c0 1.2-.9 2.1-2.1 2.1s-2.1-.9-2.1-2.1.9-2.1 2.1-2.1 2.1.9 2.1 2.1zM180.7 217.3c0 1.2-.9 2.1-2.1 2.1s-2.1-.9-2.1-2.1.9-2.1 2.1-2.1 2.1.9 2.1 2.1zM191.7 203.4c0 1.2-.9 2.1-2.1 2.1s-2.1-.9-2.1-2.1.9-2.1 2.1-2.1 2.1.9 2.1 2.1z"/></g><g><path class="st11" d="M182.8 324.9c-4.3 0-8.7-.5-12.9-1.4-8.8-1.9-15.7-4.8-21-8.7-5.7 2-12.6 3.5-20.5 3.7-22.7.6-43.2-6.5-68.4-26.9-1.3-2.7-2.5-5.6-3.7-8.6 24.2 19.6 50.5 31 71.9 30.5 6.1-.2 11.5-1.2 16.2-2.6-5.9-6.1-8.8-14.1-8.8-23.7 0-10.6 4.6-15.4 8.3-17.6 5.4-3.1 12.7-2.6 19.1 1.1 7.1 4.1 11.3 11.1 11.3 18.7 0 6.1-3 12.1-8.1 16-2.7 2.1-6.6 4.7-11.9 7.1 4.4 2.6 9.9 4.6 16.5 6.1 7.5 1.7 15.3 1.7 23 .2 21.3-4.2 39.1-11.8 52.9-22.5 11-8.5 19.4-19 25.2-31.2 9.8-20.8 8.3-39.4 8.3-39.6v-.1c-1.2-24.6-15.6-48.7-36.7-61.3-18.3-10.9-41.7-14-65.9-8.4-15.1 3.4-35.5 11.5-47.6 30.8-13 20.7-9.5 46.4 1.2 58.4 7.7 8.5 22.3 5.5 34.1 3 1.3-.3 2.6-.6 3.9-.8 12.7-2.5 64.1-26.6 64.3-26.7l1.1 4.1c-.8.3-51.4 24.9-64.4 27.5-1.2.2-2.5.5-3.8.8-13 2.7-29.3 6.1-38.8-4.5-6.9-7.7-10.8-18.9-10.8-31.4-.1-11.7 3.2-23.7 9.1-33 13-20.7 34.7-29.3 50.7-33 25.5-5.8 50.2-2.6 69.5 9 22.4 13.4 37.8 39.1 39.1 65.3.1 1.3 1.4 20.5-8.8 42.1-6.1 12.9-15.1 24-26.7 33-14.4 11.2-32.9 19-55 23.4-3.8.8-7.9 1.2-11.9 1.2zm-30.7-52.3c-2 0-4 .5-5.6 1.4-3.8 2.2-5.8 6.8-5.8 13.3 0 9.3 2.9 16.5 9 21.9 6.1-2.5 10.7-5.5 13.6-7.7 3.8-3 6.1-7.5 6.1-12.1 0-5.8-3.3-11.1-8.8-14.4-2.8-1.5-5.8-2.4-8.5-2.4z"/><path class="st7" d="M152.8 317.4c0 .1-.8-.2-1.9-.9-1.1-.7-2.5-1.7-4.1-3-1.5-1.3-2.8-2.5-3.6-3.5-.8-1-1.2-1.7-1.2-1.7.1 0 .5.6 1.4 1.5.9.9 2.2 2.1 3.7 3.4 1.5 1.2 2.9 2.3 3.9 3.1 1.2.7 1.9 1.1 1.8 1.1zM158.1 314.5c0 .1-.9 0-2.2-.6-1.3-.5-3.1-1.5-4.8-2.9-1.7-1.4-3.1-2.8-3.9-4-.9-1.1-1.3-1.9-1.2-2 .1 0 .6.7 1.5 1.7.9 1.1 2.3 2.5 4 3.8 1.7 1.3 3.3 2.4 4.6 2.9 1.1.8 2 1 2 1.1z"/><path class="st13" d="M138.1 297.3s-.1-.3-.3-.8c-.2-.5-.4-1.3-.6-2.3-.4-2-.7-4.7-.5-7.8.2-3.1.9-5.8 1.6-7.6.3-.9.6-1.7.9-2.2.2-.5.4-.8.4-.8.1 0-.4 1.2-1 3.1-.6 1.9-1.2 4.6-1.4 7.6-.2 3 0 5.7.3 7.7.4 1.9.7 3 .6 3.1zM125.7 315.2c0 .1-.9.3-2.4.4-1.5.1-3.6.2-5.9-.2-2.3-.3-4.3-.9-5.7-1.5-1.4-.6-2.2-1-2.2-1.1 0-.1.9.3 2.3.7 1.4.5 3.4 1 5.7 1.3 2.3.3 4.3.4 5.8.3 1.4.1 2.4 0 2.4.1zM263.5 282c.1 0-.5.9-1.5 2.2-1 1.3-2.4 3-4.1 4.8-1.7 1.8-3.4 3.3-4.7 4.3-1.3 1-2.1 1.6-2.1 1.5 0-.1.7-.7 1.9-1.8s2.8-2.6 4.6-4.3c1.7-1.8 3.2-3.4 4.2-4.7 1-1.2 1.7-2 1.7-2zM120.9 231.1s-.2-.5-.5-1.3c-.3-.9-.7-2.1-1.1-3.7-.4-1.6-.7-3.5-1-5.7-.2-2.2-.4-4.5-.3-7 .1-2.5.3-4.9.7-7 .4-2.1.8-4 1.3-5.6.5-1.6.9-2.8 1.2-3.7.3-.8.5-1.3.6-1.3 0 0-.1.5-.4 1.4-.3.9-.7 2.1-1.1 3.7-.4 1.6-.8 3.5-1.2 5.6-.3 2.1-.6 4.5-.6 7-.1 2.5.1 4.8.3 7 .2 2.1.5 4 .9 5.6.3 1.6.6 2.9.9 3.7.2.8.3 1.3.3 1.3zM126.9 186.2c.1.1-.4 1.3-1.2 2.7-.8 1.4-1.5 2.5-1.6 2.4-.1-.1.4-1.3 1.2-2.7.8-1.4 1.5-2.5 1.6-2.4z"/></g><g><path class="st7" d="M248 142.1c-1.2 1.9-.2 4.4 1.2 6.2 1.3 1.8 3 3.5 3.3 5.8.4 3-2.2 5.7-5 7-.9.4-1.8.7-2.4 1.5-.8 1.1-.5 2.6-.5 3.9 0 2.3-1.3 4.5-3.3 5.6-2 1-4.7.7-6.3-1-.9-1-1.3-2.3-1.6-3.6-1.1-4.9.2-10.4 3.6-14.2 1.7-1.9 3.8-3.3 5.7-5 1.8-1.7 3.5-3.9 3.6-6.4M247.7 119.3c-1.4-3.6-5-5.8-8.7-7.1-5.2-1.8-11.1-2.2-16.3-.4-7.6 2.8-12.7 9.9-16.7 16.9-1.7 3.1-3.6 6.5-7 7.5-1.8.5-3.7.3-5.6.5-2.9.3-5.6 1.8-7.5 4-2.2 2.7-3.4 6.6-6.6 8.1-2.1.9-4.5.5-6.7.6-4.7.1-9.7 3-10.8 7.6-.7 3 .3 6.4-1 9.1-.5 1-1.3 1.8-1.8 2.8-1 2-.4 4.7 1.3 6.1s4.4 1.6 6.3.4c.7-.5 1.3-1.1 2.1-1.4 1.6-.7 3.5.2 4.9 1.3 1.4 1.1 2.8 2.4 4.6 2.6 3.6.4 6.4-3.9 10.1-3.7 2 .1 3.7 1.7 5.4 2.7 3.1 1.8 4.6.2 7.2-2.3 2.6-2.5 4 7.9 10 5.2 5.6-2.5.1-12.1 2.1-11.8 2 .2 7.4-.1 8.5-1.8"/><path class="st7" d="M248.4 130c1.5-4 .9-8.8-1.6-12.3-1.9-2.7-4.7-4.5-7.6-5.8-4-1.7-8.6-2.4-12.7-1.2-4.2 1.2-7.8 4.6-8.8 8.8-.4 1.9-.3 4-1.1 5.8-.4.8-.9 1.6-.8 2.4.1.8.8 1.4 1.6 1.5.8.2 1.6 0 2.3-.2 2.6-.8 4.8-2.3 7-3.9"/><path class="st16" d="M234.5 167.7c.5-3.7.6-5.2.6-5.2s7.9-.4 10.7-10.4c1.4-5 2.1-13.3 2.4-20.1.3-6.1-2.9-14.1-9-14.1l-19.5 2.6c-1.9 0-3.4 1.4-3.6 3.3l-3.1 44.4s8.8 10.4 16.4 9c7.7-1.3 5.1-9.5 5.1-9.5z"/><path class="st7" d="M244.9 138.9c-.1.7-.7 1.2-1.4 1.2s-1.3-.6-1.2-1.3c.1-.7.7-1.2 1.4-1.2s1.3.6 1.2 1.3zM245.9 136.2c-.2.2-1.1-.7-2.5-.8-1.4-.2-2.5.4-2.6.2-.1-.1.1-.4.6-.6.5-.3 1.3-.5 2.1-.4.9.1 1.6.5 2 .9.4.3.5.6.4.7zM232.1 137.6c-.1.7-.7 1.2-1.4 1.2s-1.3-.6-1.2-1.3c.1-.7.7-1.2 1.4-1.2s1.3.6 1.2 1.3zM232.1 134.9c-.2.2-1.1-.7-2.5-.8-1.4-.2-2.5.4-2.6.2-.1-.1.1-.4.6-.6.5-.3 1.3-.5 2.1-.4.9.1 1.6.5 2 .9.4.3.5.6.4.7zM236 145.8c0-.1.9-.1 2.3-.2.4 0 .7 0 .8-.3.1-.2 0-.7-.1-1.1-.2-.9-.5-1.9-.7-2.8-1-4-1.7-7.4-1.6-7.4.2 0 1.1 3.2 2.2 7.3.2 1 .5 1.9.7 2.9.1.4.3.9 0 1.4-.1.3-.4.4-.6.5h-.6c-1.5-.1-2.4-.2-2.4-.3z"/><g><path class="st17" d="M235.1 162.5s-6.9-.3-13.2-5.2c0 0 2.6 7.4 12.9 7.6l.3-2.4z"/></g><g><path class="st17" d="M235 149.1c-.4-.7-1.3-1.2-2.2-1.2-.6 0-1.3.2-1.7.7-.4.5-.6 1.1-.3 1.7.3.6 1.1.8 1.8.7.7-.1 1.3-.5 1.9-.9.2-.1.3-.2.4-.4.2-.1.3-.3.1-.6"/></g><g><path class="st7" d="M232.8 129.8c-.2.4-1.6 0-3.2 0-1.7 0-3 .3-3.2-.1-.1-.2.2-.5.8-.8.6-.3 1.5-.6 2.5-.6s1.9.3 2.5.6c.4.4.6.7.6.9z"/></g><g><path class="st7" d="M246.2 130c-.3.3-1.2-.1-2.4-.3-1.2-.2-2.2 0-2.4-.4-.1-.2.1-.5.6-.7.5-.3 1.2-.4 2-.3.8.1 1.5.5 1.8.9.4.3.5.6.4.8z"/></g><g><path class="st16" d="M217 141.2c.1-.8-.6-2.6-1.3-2.8-2-.5-5.6-.8-6.2 4.3-.8 6.9 6.3 6.3 6.3 6.1 0-.2.9-5 1.2-7.6z"/><path class="st17" d="M214 145.9s-.1.1-.3.1c-.2.1-.6.1-.9-.1-.7-.4-1.2-1.6-1.1-2.8.1-.6.3-1.2.5-1.7.3-.5.6-.8 1-.8s.6.2.7.4c.1.2 0 .3 0 .4 0 0 .2-.1.1-.4 0-.1-.1-.3-.2-.5s-.4-.3-.6-.3c-.5 0-1.1.4-1.4.9-.3.5-.6 1.2-.6 1.9-.1 1.4.4 2.8 1.4 3.2.5.2.9.1 1.1-.1.3-.1.3-.2.3-.2z"/></g><g><path class="st7" d="M240.3 116.9c-.9 3.3-3.8 6-7.1 6.6-1.8.4-3.9.3-5.1 1.7-1.2 1.4-.8 3.7-1.9 5.2-1.6 2.1-5.3 1.6-6.5 3.9-.5 1-.4 2.2-1 3.2-.7 1.3-2.6 1.7-4 1.1-1.4-.6-2.3-2-2.7-3.4-.4-1.4-.4-3-.3-4.5.1-3 .4-6 1.5-8.7 2.4-5.7 11.7-13 17.8-12"/></g><g><path class="st7" d="M247.2 144.2c1.6-1.9 3.1-4 4.7-5.8 1.5-1.8 3.1-3.7 3.2-6 .2-1.9-.7-3.8-1.7-5.5-1.9-3.2-4.2-6.1-6.6-9-.6-.7-1.2-1.4-1.9-1.9-.6-.4-1.3-.7-2.1-.7-.6 0-1.3 0-1.7.4-.5.4-.8 1.1-.5 1.6.2.5.8.8 1.3 1 2.9 1.5 4.7 4.5 5.5 7.6.8 3.1.6 6.2.5 9.4-.1 2.5-.4 5.2-.7 7.6"/></g><g><path class="st7" d="M231 110.2c-7.2-1-14.8 2.2-19.2 8.1-2.4 3.2-4.2 7.5-8 8.8-3.1 1.1-6.6-.1-9.9.4-2.9.5-5.5 2.6-6.7 5.3-.9 2.2-1 4.8-2.7 6.5-2.1 2.3-6 2-8.2 4.2-1.8 1.8-1.9 4.8-1.1 7.3.3 1 .8 2.1 1.7 2.6.8.4 1.8.4 2.7.2 3.2-.6 6.1-2 8.9-3.5 6.4-3.4 12.5-7.3 18.6-11.1 2.8-1.8 5.7-3.6 8-6.1 3-3.3 4.8-7.4 6.9-11.3 2.1-3.9 4.8-7.8 8.8-9.6"/></g><g><path class="st10" d="M162.3 176.2s-.1 0-.3-.1l-.8-.4c-.6-.4-1.5-1.3-1.9-2.6-.4-1.3-.5-3.3.6-5.1 1.1-1.8 3-3.2 5.4-4.1 2.4-.9 5.2-1.2 8.1-1.8 1.5-.3 2.9-.7 4.4-1.3 1.4-.7 2.8-1.6 3.8-2.9 1-1.3 1.5-3 1.7-4.7.3-1.7.4-3.5.9-5.3 1-3.6 3.8-6.7 7.4-8.4 1.8-.9 3.7-1.2 5.7-1.2 1.9 0 3.8.3 5.6.5 1.8.1 3.6 0 5.2-.5.8-.3 1.5-.7 2.1-1.3.6-.6 1.1-1.2 1.5-2 .8-1.4 1.3-3 2.2-4.4.9-1.4 2.1-2.5 3.3-3.3 2.6-1.6 5.3-2.4 7.8-3 2.5-.6 4.7-1.2 6.5-2 1.9-.7 3.3-1.7 4.4-2.6 1.1-.9 1.7-1.8 2.1-2.5.4-.6.5-1 .5-1s-.1.4-.5 1c-.3.7-1 1.6-2 2.6-1.1.9-2.6 1.9-4.4 2.7-1.9.8-4.1 1.4-6.5 2-2.4.7-5.1 1.4-7.6 3-1.2.8-2.4 1.9-3.2 3.2-.8 1.3-1.3 2.9-2.1 4.4-.4.7-.9 1.5-1.6 2.1-.7.6-1.4 1.1-2.3 1.4-1.7.6-3.6.7-5.4.6-1.8-.1-3.7-.4-5.5-.4-1.9 0-3.7.4-5.4 1.2-3.4 1.6-6.1 4.6-7.1 8.1-.5 1.7-.6 3.5-.9 5.3-.3 1.7-.8 3.5-1.8 4.9-1 1.4-2.5 2.3-3.9 3-1.5.7-3 1.1-4.5 1.4-2.9.6-5.7.8-8.1 1.7-2.4.9-4.3 2.2-5.3 3.9-1.1 1.7-1 3.6-.7 4.9.4 1.4 1.2 2.2 1.8 2.6.4.3.8.4.8.4z"/></g><g><path class="st10" d="M162.9 154.9s.2-.3.7-.7c.5-.4 1.4-.8 2.7-.8 1.2-.1 2.7.2 4.4.7.8.2 1.7.5 2.7.6.9.1 2 .1 3-.3s1.9-1.1 2.6-2c.7-.9 1.2-2 1.7-3.2.4-1.2.8-2.5 1.2-3.8.5-1.3 1-2.6 1.7-3.9 1.4-2.5 3.4-5 6.4-6.4 1.4-.7 3.1-1 4.7-1 1.6-.1 3.3.1 4.9-.1 1.6-.1 3.2-.7 4.3-1.7 1.2-1.1 1.9-2.5 2.6-3.9.7-1.4 1.4-2.8 2.4-4 1-1.2 2.2-2.1 3.5-2.7 2.6-1.3 5.4-1.8 7.9-2 2.6-.2 4.9-.3 7.1-.7 2.1-.3 4-.8 5.6-1.6 1.5-.7 2.7-1.6 3.6-2.5.8-.9 1.3-1.7 1.6-2.3.3-.6.4-.9.4-.9l-.3.9c-.2.6-.7 1.4-1.5 2.3-.8.9-2 1.9-3.6 2.6-1.6.8-3.5 1.3-5.6 1.7-2.2.3-4.5.4-7.1.7-2.5.3-5.2.7-7.8 2-1.3.6-2.4 1.5-3.4 2.6-.9 1.1-1.6 2.5-2.3 3.9-.7 1.4-1.5 2.9-2.7 4-1.2 1.2-2.9 1.7-4.6 1.8-1.7.2-3.3 0-4.9.1-1.6 0-3.2.3-4.5.9-2.8 1.3-4.8 3.7-6.2 6.2-.7 1.2-1.3 2.5-1.7 3.8-.5 1.3-.8 2.6-1.2 3.8-.8 2.4-2.3 4.6-4.5 5.4-1.1.4-2.2.4-3.1.3-1-.1-1.9-.4-2.7-.7-1.6-.5-3.1-.9-4.3-.8-1.2 0-2.1.4-2.6.7-.9.8-1.1 1.1-1.1 1z"/></g><g><path class="st10" d="M193.3 175.9s.2 0 .4-.2c.3-.1.6-.5.8-1 .2-.5.2-1.3-.3-1.9-.5-.7-1.2-1.2-2.2-1.7-.9-.5-2.1-.8-3-1.8-.9-.9-1.5-2.2-1.7-3.7-.1-1.4.1-3 .9-4.4.8-1.4 2-2.5 3.3-3.4 2.8-1.8 5.9-2.4 8.7-2.9 2.8-.5 5.2-1 7.2-1.8 1.9-.8 3.4-1.8 4.2-2.6.8-.8 1.2-1.4 1.2-1.4l-.2.4c-.2.3-.5.6-.9 1.1-.8.9-2.2 1.9-4.2 2.8-2 .9-4.5 1.4-7.2 1.9s-5.8 1.1-8.5 2.9c-1.3.9-2.5 2-3.2 3.3-.7 1.3-1 2.7-.9 4.1.1 1.3.7 2.6 1.5 3.4.9.8 2 1.2 2.9 1.7 1 .5 1.8 1.1 2.3 1.8.5.7.5 1.6.3 2.2-.2.6-.6.9-.9 1-.3.3-.5.2-.5.2z"/></g></g><g><path class="st16" d="M205.9 228.2s-1.2-1.3-.8-2.4c.4-1.2 1.1-2 1.3-1.9.3.1.2-6.3 1.3-6.7 1.2-.5 2.5-.8 2.5-.8s1.3-3.5 2.1-3.4c.8.1 9.3 1.6 9.3 1.6s6.7 7.2 6.4 7.9c-.4.7-.8 1.4-1.8 1.1-1.1-.4-2.1-1.1-2.1-1.1l3.6 3.9s-.7 3-3.6.9l1.4 1.8s-.9 3.8-5.1.6l-4.3-2.6h-2.8l6.4 3.9s.7 1.9-1.3 1.9c-1.9 0-6.8-2.6-6.8-2.6s-2.9 1.7-3.8 1.7c-1 0-1.2-1.1-1.2-1.1l-.7-2.7z"/><path class="st17" d="M224.4 227.5c-.1 0-.6-.5-1.5-1.3s-2.3-1.8-3.5-3.2c-.6-.7-1.4-.9-2.2-1-.8 0-1.5.1-2.1.1-1.2.1-2 0-2-.1s.7 0 1.9-.3c.6-.1 1.3-.3 2.2-.2.4 0 .9.1 1.3.3.5.2.8.5 1.2.8 1.2 1.4 2.5 2.4 3.4 3.3.9.9 1.3 1.6 1.3 1.6zM227.8 226.4c-.1 0-.7-.6-1.7-1.7s-2.5-2.6-4.1-4.2c-.8-.8-1.6-1.6-2.4-2.2-.8-.6-1.6-.8-2.4-.9-1.5-.1-2.4 0-2.4 0s.2-.1.6-.2c.4-.1 1-.2 1.8-.1.8 0 1.7.2 2.6.8.8.6 1.6 1.4 2.4 2.2 1.7 1.6 3.1 3.2 4 4.3 1.1 1.2 1.7 2 1.6 2z"/></g><g><path class="st7" d="M230.9 147.1c.3-.1.8.8 1.8 1.7.9.9 1.8 1.5 1.7 1.8-.1.2-1.3 0-2.4-1.1-1.1-1.1-1.4-2.3-1.1-2.4z"/></g><g><path class="st11" d="M304.7 227.3l-8.9-45.7c-.4-1.9-2.2-3.1-4-2.7-1.9.4-3.1 2.2-2.7 4l.4 2.1-18.4 4.5c-4.1 1-7.2 4-8.6 7.7l-11.1 2.7c-3.8.9-6.2 4.8-5.2 8.7l1 4-10.9 2.7c-3 .7-4.9 3.8-4.1 6.8.7 3 3.8 4.9 6.8 4.1l10.9-2.7.8 3.1c.9 3.8 4.8 6.2 8.7 5.2l11.3-2.8v-.1c2.9 2.5 6.9 3.6 10.9 2.6l16.3-4 .2 1c.4 1.9 2.2 3.1 4 2.7 1.7-.3 2.9-2.1 2.6-3.9z"/><path class="st7" d="M304.7 227.3s.1.3.1.8-.1 1.3-.8 2.1c-.6.8-1.9 1.5-3.4 1.2-.7-.2-1.5-.6-2-1.2-.3-.3-.5-.7-.6-1.2-.1-.4-.2-.9-.3-1.4l.1.1c-3.3.8-7.4 1.8-12 3l-3.6.9c-1.2.3-2.5.6-3.9.5-2.7 0-5.6-1-7.9-3l.3-.2V229.2h-.2c-3.8.9-7.8 2-12.1 2.9-2.2.3-4.6-.5-6.3-2.2-.8-.8-1.4-1.9-1.8-3.1-.3-1.1-.6-2.3-.9-3.4l.3.2c-3 .7-6 1.5-9.2 2.3-.8.2-1.5.4-2.4.5-.8.1-1.7 0-2.5-.2-1.6-.5-3-1.8-3.6-3.4-.7-1.6-.5-3.6.4-5.1.9-1.6 2.6-2.6 4.3-2.9 3.4-.8 6.8-1.7 10.2-2.5l-.2.3c-.2-.8-.4-1.7-.6-2.6-.2-.9-.5-1.8-.6-2.7-.1-1.9.5-3.8 1.7-5.3.6-.7 1.3-1.3 2.2-1.8.8-.5 1.7-.7 2.6-.9 3.5-.9 6.9-1.7 10.3-2.5l-.2.2c1-2.6 2.9-4.9 5.2-6.3 1.2-.7 2.4-1.2 3.7-1.5 1.3-.3 2.5-.6 3.8-.9 5-1.2 9.8-2.4 14.4-3.5l-.2.3c-.1-.5-.2-1.1-.3-1.6-.1-.5-.2-1.1-.1-1.7.2-1.1.9-2.2 1.9-2.7 1-.5 2.2-.5 3.2-.1 1 .5 1.7 1.4 2 2.4.8 4 1.5 7.8 2.2 11.3 1.4 7.1 2.6 13.3 3.5 18.4 1 5.1 1.7 9.1 2.3 11.9.3 1.4.4 2.4.6 3.1.1.3.1.6.1.8.3.3.3.4.3.4s0-.1-.1-.3c0-.2-.1-.5-.2-.8-.1-.7-.4-1.8-.6-3.1-.6-2.8-1.4-6.8-2.4-11.9-1-5.1-2.2-11.3-3.6-18.4-.7-3.5-1.4-7.3-2.2-11.3-.2-.9-.9-1.8-1.8-2.2-.9-.4-2-.4-2.9.1-.9.5-1.5 1.4-1.7 2.4-.1.5 0 1 .1 1.5s.2 1.1.3 1.6v.2h-.2c-4.6 1.1-9.4 2.3-14.4 3.6-2.5.7-5.2 1-7.4 2.4s-4 3.5-5 6.1v.1h-.1c-3.4.8-6.8 1.7-10.3 2.5-.9.2-1.7.4-2.5.9-.8.4-1.5 1-2 1.7-1.1 1.3-1.7 3.1-1.6 4.9.1.9.3 1.8.5 2.6.2.9.4 1.7.6 2.6l.1.2-.2.1c-3.5.8-6.9 1.7-10.2 2.5-1.7.3-3.2 1.2-4 2.7-.8 1.4-1 3.2-.4 4.7s1.8 2.7 3.3 3.2c.7.2 1.5.3 2.3.2.8-.1 1.6-.4 2.3-.5 3.1-.8 6.2-1.5 9.2-2.2l.2-.1.1.2c.3 1.1.5 2.3.9 3.4.3 1.1.9 2.1 1.7 2.9 1.5 1.6 3.8 2.4 5.9 2.1 4.2-.9 8.3-2 12.1-2.9l-.1.2v-.1l-.1-.6.4.4c2.2 1.9 5 2.9 7.6 2.9 1.3 0 2.6-.2 3.8-.5l3.6-.9c4.6-1.1 8.7-2.1 12-2.9h.1v.1c.1.5.2.9.3 1.3.1.4.3.8.6 1.1.5.6 1.2 1 1.9 1.2 1.4.3 2.6-.4 3.3-1.1.6-.8.8-1.6.8-2v-.8z"/><path class="st7" d="M298.2 227.5c-.1 0-2.3-9.5-4.8-21.2S289 185 289.1 185c.1 0 2.3 9.5 4.8 21.2 2.5 11.8 4.4 21.3 4.3 21.3zM270.5 229c-.1 0-2-7.1-4.3-15.9-2.2-8.8-3.9-16-3.8-16 .1 0 2 7.1 4.3 15.9s4 16 3.8 16zM249.8 223.5c-.1 0-.9-2.4-1.6-5.4-.7-3-1.2-5.5-1.1-5.5.1 0 .9 2.4 1.6 5.4.7 3 1.2 5.5 1.1 5.5z"/><path class="st13" d="M259.7 199.8c0 .1-1.1.2-2.8.6-.9.2-1.9.4-3 .7-1.1.3-2.3.7-3.5 1.4-1.1.7-2.1 1.5-2.4 2.6-.3 1.1-.2 2.1-.1 3 .2 1.7.5 2.8.4 2.8-.1 0-.5-1-.8-2.8-.1-.9-.3-2 0-3.2.2-.6.5-1.2 1-1.6.5-.5 1-.9 1.6-1.2 1.2-.7 2.5-1.1 3.6-1.4 1.1-.3 2.2-.5 3-.6 1.9-.3 3-.4 3-.3zM286 187.7l-.9.3c-.6.2-1.5.4-2.6.6-2.3.5-5.3 1.1-8.7 1.8-1.7.4-3.2.9-4.5 1.6-1.3.7-2.3 1.6-3 2.5-1.4 1.8-1.4 3.3-1.5 3.3 0 0-.1-.4.1-1 .1-.6.5-1.5 1.1-2.5.7-.9 1.7-1.9 3-2.6 1.3-.8 2.9-1.3 4.6-1.7 3.4-.7 6.5-1.3 8.7-1.7 1.1-.2 2-.4 2.6-.4.8-.2 1.1-.3 1.1-.2z"/><g><path class="st13" d="M245.2 215.1c0 .1-.7.5-1.9.8-1.2.3-3 .5-4.9.9-.9.2-1.8.5-2.5.9s-1.3.9-1.7 1.3c-.8.9-1 1.7-1.1 1.7 0 0 0-.9.8-1.9.4-.5 1-1 1.8-1.5.8-.4 1.7-.7 2.6-1 1.9-.4 3.7-.5 4.9-.7 1.3-.3 2-.6 2-.5z"/></g><g><path class="st13" d="M293.5 179.9c0 .1-.4.1-.9.2s-1.2.5-1.8 1.1c-.5.6-.7 1.4-.8 1.9-.1.5 0 .9-.1.9s-.2-.3-.3-.9c0-.6.1-1.5.8-2.2.6-.7 1.5-1 2.1-1.1.6-.1 1 0 1 .1z"/></g></g></g><g id="_x34_04_Error"><path class="st7" d="M565.7-97c0 3.6-2.6 5.8-6.9 5.8h-4.6v5.4h-1.8v-17h6.4c4.3 0 6.9 2.2 6.9 5.8zm-1.8 0c0-2.7-1.8-4.3-5.2-4.3h-4.5v8.5h4.5c3.4 0 5.2-1.5 5.2-4.2zM578.7-93.7v7.9h-1.6v-2c-.8 1.3-2.3 2.1-4.4 2.1-2.9 0-4.7-1.5-4.7-3.7 0-2 1.3-3.6 4.9-3.6h4v-.8c0-2.2-1.2-3.4-3.6-3.4-1.6 0-3.2.6-4.2 1.5l-.8-1.3c1.3-1.1 3.2-1.7 5.2-1.7 3.4 0 5.2 1.7 5.2 5zm-1.7 4.1v-2.1h-4c-2.5 0-3.3 1-3.3 2.3 0 1.5 1.2 2.4 3.2 2.4 2-.1 3.4-1 4.1-2.6zM595.3-98.6v11.2c0 4.4-2.2 6.4-6.4 6.4-2.3 0-4.6-.7-5.9-2l.9-1.3c1.2 1.1 3.1 1.7 5 1.7 3.2 0 4.7-1.5 4.7-4.6v-1.6c-1.1 1.6-2.9 2.5-5 2.5-3.6 0-6.4-2.5-6.4-6.2s2.8-6.2 6.4-6.2c2.1 0 4 .9 5 2.5v-2.4h1.7zm-1.7 6.1c0-2.8-2-4.7-4.8-4.7s-4.8 1.9-4.8 4.7c0 2.8 2 4.7 4.8 4.7s4.8-1.9 4.8-4.7zM611.2-91.7h-10.7c.2 2.7 2.2 4.4 5 4.4 1.6 0 2.9-.6 3.9-1.7l1 1.1c-1.1 1.4-2.9 2.1-4.9 2.1-4 0-6.7-2.7-6.7-6.5s2.6-6.5 6.2-6.5 6.2 2.6 6.2 6.5v.6zm-10.7-1.2h9c-.2-2.5-2-4.2-4.5-4.2-2.4-.1-4.2 1.7-4.5 4.2zM632.8-93.2v7.4h-1.7V-93c0-2.7-1.4-4.1-3.8-4.1-2.7 0-4.5 1.7-4.5 4.6v6.7h-1.7v-12.8h1.6v2.4c.9-1.6 2.6-2.4 4.8-2.4 3.2-.1 5.3 1.7 5.3 5.4zM636.3-92.2c0-3.8 2.8-6.5 6.5-6.5s6.5 2.7 6.5 6.5-2.7 6.5-6.5 6.5-6.5-2.7-6.5-6.5zm11.2 0c0-3-2-5-4.7-5s-4.8 2-4.8 5 2 5 4.8 5c2.7 0 4.7-2 4.7-5zM659.5-86.6c-.7.6-1.7.9-2.7.9-2.4 0-3.7-1.4-3.7-3.7v-7.7h-2.3v-1.5h2.3v-2.8h1.7v2.8h3.9v1.5h-3.9v7.6c0 1.5.8 2.3 2.2 2.3.7 0 1.4-.2 1.9-.7l.6 1.3zM670.9-100.1v1.5h3.9v1.5H671v11.3h-1.7v-11.3H667v-1.5h2.3v-1.6c0-2.3 1.4-3.8 3.9-3.8.9 0 1.9.3 2.5.8l-.6 1.3c-.5-.4-1.2-.6-1.9-.6-1.5 0-2.3.8-2.3 2.4zM675.7-92.2c0-3.8 2.8-6.5 6.5-6.5s6.5 2.7 6.5 6.5-2.7 6.5-6.5 6.5-6.5-2.7-6.5-6.5zm11.2 0c0-3-2-5-4.7-5s-4.8 2-4.8 5 2 5 4.8 5c2.7 0 4.7-2 4.7-5zM703.6-98.6v12.8H702v-2.3c-.9 1.6-2.5 2.4-4.6 2.4-3.2 0-5.4-1.8-5.4-5.5v-7.4h1.7v7.2c0 2.7 1.4 4.1 3.8 4.1 2.7 0 4.3-1.7 4.3-4.6v-6.7h1.8zM720.2-93.2v7.4h-1.7V-93c0-2.7-1.4-4.1-3.8-4.1-2.7 0-4.5 1.7-4.5 4.6v6.7h-1.7v-12.8h1.6v2.4c.9-1.6 2.6-2.4 4.8-2.4 3.2-.1 5.3 1.7 5.3 5.4zM736.6-103.8v18H735v-2.5c-1 1.7-2.8 2.6-4.9 2.6-3.6 0-6.4-2.6-6.4-6.5s2.7-6.5 6.4-6.5c2 0 3.8.9 4.8 2.5v-7.7h1.7zm-1.7 11.6c0-3-2-5-4.7-5s-4.8 2-4.8 5 2 5 4.8 5c2.6 0 4.7-2 4.7-5z"/><g><path class="st7" d="M616.5-125.5h-8.9v11.5h-12.3v-11.5h-29.4v-8.5l25.7-34.6h13.2L581-135.8h14.6V-146h11.9v10.2h8.9v10.3zM620.2-141.3c0-18 10-28.2 23.4-28.2 13.5 0 23.4 10.2 23.4 28.2s-9.9 28.2-23.4 28.2c-13.4 0-23.4-10.2-23.4-28.2zm34.1 0c0-12.4-4.4-17.5-10.7-17.5-6.2 0-10.6 5.1-10.6 17.5s4.4 17.5 10.6 17.5c6.3 0 10.7-5.2 10.7-17.5zM723.1-125.5h-8.9v11.5h-12.3v-11.5h-29.4v-8.5l25.7-34.6h13.2l-23.8 32.8h14.6V-146h11.9v10.2h8.9v10.3z"/></g></g><g id="Lines"><path class="st7" d="M439.2 173.1s-.1 0-.2.1c-.2.1-.3.2-.6.3-.5.3-1.3.7-2.2 1.2-2 1-4.8 2.4-8.2 4.2-7 3.5-16.7 8.4-27.5 13.9l-.2.1-.1-.2c-.8-1.1-1.6-2.2-2.4-3.4-1.2-1.7-2.3-3.3-3.4-4.8l.3.1c-10.2 5.9-19.1 11.1-25.6 14.8-3.2 1.8-5.8 3.3-7.6 4.4-.9.5-1.6.9-2.1 1.2-.2.1-.4.2-.5.3-.1.1-.2.1-.2.1s.1 0 .2-.1.3-.2.5-.3c.5-.3 1.2-.7 2-1.2 1.8-1.1 4.4-2.6 7.6-4.5 6.5-3.8 15.4-9 25.6-15l.2-.1.1.2c1.1 1.5 2.2 3.2 3.4 4.8.8 1.2 1.6 2.3 2.4 3.4l-.3-.1c10.9-5.4 20.6-10.2 27.6-13.7 3.5-1.7 6.3-3.1 8.3-4.1.9-.5 1.7-.8 2.2-1.1l.6-.3c0-.1.1-.2.1-.2zM431.9 209.3s-.2.1-.5.2c-.4.1-.9.2-1.6.3-1.4.3-3.4.7-5.9 1.2-5 1-11.9 2.3-19.6 3.8h-.2v-.2c-.1-.8-.3-1.6-.4-2.4-.1-.5-.2-1.1-.3-1.6l.3.2c-8 1.4-15 3-20 4.4-2.5.7-4.5 1.2-5.9 1.6-.7.2-1.2.3-1.6.4-.4.1-.6.1-.6.1s.2-.1.5-.2c.4-.1.9-.3 1.6-.5 1.4-.4 3.4-1.1 5.9-1.8 5-1.4 12.1-3.1 20.1-4.5h.2v.2c.1.5.2 1.1.3 1.6.1.8.3 1.7.4 2.4l-.3-.2c7.7-1.4 14.6-2.7 19.6-3.7 2.4-.4 4.4-.8 5.9-1 .7-.1 1.2-.2 1.6-.3.3 0 .5-.1.5 0zM364.8 174.6c.1.1-2.4 5.6-5.7 12.3-3.3 6.7-6 12.1-6.1 12.1-.1-.1 2.4-5.6 5.7-12.3 3.3-6.8 6-12.2 6.1-12.1zM394.7 201.5c0 .1-6.3 2.1-14.1 4.4-7.8 2.3-14.2 4-14.3 3.9 0-.1 6.3-2.1 14.1-4.4 7.9-2.3 14.3-4 14.3-3.9zM345.8 157.3s.2.4.4 1c.3.7.6 1.7 1 2.9.9 2.6 2 6.1 3.4 10.3l.1.3h-.3c-2.4 0-5-.1-7.8-.2l.2-.3c.2 1 .4 2 .6 3.1 1.3 7 2.4 13.4 3.3 18.1.4 2.3.7 4.1.9 5.5.1.6.2 1.1.2 1.5 0 .3.1.5 0 .5 0 0-.1-.2-.1-.5-.1-.4-.2-.9-.3-1.5-.3-1.4-.6-3.2-1.1-5.5-.9-4.7-2.1-11.1-3.4-18.1-.2-1.1-.4-2.1-.6-3.1l-.1-.3h.3c2.8.1 5.4.1 7.8.2l-.2.3c-1.3-4.2-2.5-7.8-3.3-10.4-.4-1.2-.7-2.2-.9-3-.1-.4-.1-.8-.1-.8zM311.2 232.7c-.1-.1 5-2.6 11.3-5.6 6.3-3 11.5-5.3 11.5-5.1.1.1-5 2.6-11.3 5.6-6.2 2.9-11.4 5.2-11.5 5.1zM334.8 239.9c-.1-.1 1.8-2.6 4.3-5.6 2.5-3 4.6-5.3 4.7-5.3.1.1-1.8 2.6-4.3 5.6-2.5 3.1-4.6 5.4-4.7 5.3zM347.5 274.3c-.1 0 .7-9.8 1.9-21.8s2.3-21.7 2.4-21.7c.1 0-.7 9.8-1.9 21.8-1.1 12-2.2 21.7-2.4 21.7zM330.2 188.1c.1-.1 1.2 1.8 2.3 4.1 1.2 2.3 2 4.2 1.9 4.3-.1.1-1.2-1.8-2.3-4.1-1.2-2.3-2-4.2-1.9-4.3z"/></g></svg>