<svg xmlns="http://www.w3.org/2000/svg" viewBox="0 0 500 500"><style>.st0{fill:#ebebeb}.st1{fill:#e0e0e0}.st2{fill:#f0f0f0}.st8{fill:#263238}.st9{fill:#50a334}.st11,.st12{fill:#fff}.st12{opacity:.3}.st13{opacity:.2}</style><g id="Background_Complete"><path class="st0" d="M216.1 200.9l.5-13.1-8.1-2.6c-.3-4.5-1.1-8.9-2.2-13.2l6.8-5-4.6-12.3-8.5.7c-2-4-4.4-7.8-7-11.4l4.4-7.3-9-9.6-7.6 3.9c-3.4-2.9-7-5.5-10.8-7.8l1.2-8.4-12-5.4-5.5 6.4c-4.2-1.4-8.5-2.4-13-3l-2-8.2-13.2-.5-2.6 8.1c-4.5.4-8.9 1.1-13.2 2.2l-5.1-6.8-12.3 4.6.7 8.5c-4 2-7.8 4.4-11.4 7.1l-7.3-4.4-9.6 9 3.9 7.6c-2.9 3.4-5.5 7-7.8 10.8l-8.4-1.3-5.5 12 6.5 5.5c-1.4 4.2-2.4 8.6-3 13l-8.3 2.1-.5 13.1 8.1 2.6c.3 4.5 1.1 8.9 2.2 13.2l-6.8 5 4.6 12.3 8.5-.7c2 4 4.4 7.8 7 11.4l-4.4 7.3 9 9.6 7.6-3.9c3.4 2.9 7 5.5 10.8 7.8l-1.3 8.4 12 5.4 5.5-6.4c4.2 1.4 8.5 2.4 13 3l2 8.2 13.2.5 2.6-8.1c4.5-.4 8.9-1.1 13.2-2.2l5 6.8 12.3-4.6-.6-8.5c4-2 7.8-4.4 11.4-7.1l7.3 4.4 9.6-9-3.9-7.6c2.9-3.4 5.5-7 7.8-10.8l8.4 1.3 5.5-12-6.5-5.5c1.4-4.2 2.4-8.5 3-13l8.4-2.1zm-88.8 42.5c-28.8-1-51.3-25.1-50.3-53.9 1-28.8 25.1-51.3 53.9-50.4 28.8 1 51.3 25.1 50.3 53.9-1 28.9-25.1 51.4-53.9 50.4zM441 157.4l3.3-3.1-1.3-2.6c1-1.2 1.9-2.4 2.7-3.7l2.9.4 1.9-4.1-2.2-1.9c.5-1.5.8-3 1.1-4.5l2.9-.7.1-4.5-2.8-.9c-.1-1.5-.4-3.1-.7-4.6l2.3-1.7-1.6-4.3-2.9.2c-.7-1.4-1.5-2.7-2.4-3.9l1.5-2.5-3.1-3.3-2.6 1.3c-1.2-1-2.4-1.9-3.7-2.7l.4-2.9-4.1-1.9-1.9 2.2c-1.5-.5-3-.8-4.5-1l-.7-2.8-4.5-.2-.9 2.8c-1.5.1-3.1.4-4.5.7l-1.7-2.4-4.3 1.6.2 2.9c-1.4.7-2.7 1.5-3.9 2.4l-2.5-1.5-3.3 3.1 1.3 2.6c-1 1.2-1.9 2.4-2.7 3.7l-2.9-.4-1.9 4.1 2.2 1.9c-.5 1.5-.8 3-1.1 4.5l-2.9.7-.1 4.5 2.8.9c.1 1.5.4 3.1.7 4.6l-2.4 1.7 1.6 4.3 2.9-.2c.7 1.4 1.5 2.7 2.4 3.9l-1.5 2.5 3.1 3.3 2.6-1.3c1.2 1 2.4 1.9 3.7 2.7l-.4 2.9 4.1 1.9 1.9-2.2c1.5.5 3 .8 4.5 1l.7 2.8 4.5.2.9-2.8c1.5-.1 3.1-.4 4.5-.7l1.7 2.4 4.3-1.6-.2-2.9c1.4-.7 2.7-1.5 3.9-2.4l2.6 1.5zm-23.7-19.1c-2.4-2.6-2.3-6.7.3-9.1 2.6-2.4 6.7-2.3 9.1.3 2.4 2.6 2.3 6.7-.3 9.1-2.5 2.4-6.6 2.3-9.1-.3zM320 292.3l-10.3-7.1c-1-3.8-2.4-7.4-4.2-10.8l2.6-10.4-15-16.1-10.6 1.9c-3.3-2-6.8-3.6-10.5-4.9l-6.4-10.8-22-.8-7.1 10.3c-3.8 1-7.4 2.4-10.8 4.2l-10.4-2.6-16.1 15 1.9 10.5c-2 3.3-3.6 6.8-4.9 10.5l-10.8 6.4-.8 22 10.4 7.1c1 3.8 2.4 7.4 4.1 10.8l-2.6 10.4 15 16.1 10.5-1.9c3.3 2 6.8 3.6 10.5 4.9l6.4 10.8 22 .8 7.1-10.3c3.8-1 7.4-2.4 10.9-4.2l10.3 2.6 16.1-15-1.9-10.5c2-3.3 3.6-6.8 4.9-10.5l10.8-6.4.9-22zm-68.5 33.4c-13.7-.5-24.3-11.9-23.9-25.5.5-13.7 11.9-24.3 25.5-23.9 13.7.5 24.3 11.9 23.9 25.5-.4 13.7-11.8 24.4-25.5 23.9zM343.5 230l-17.4-.6c-.7 0-1.4-.4-1.7-1l-4.7-7.9c-2.5-.9-4.9-2-7.3-3.4l-7.5 1.4c-.7.1-1.4-.1-1.9-.6l-11.8-12.7c-.5-.5-.7-1.3-.5-2l1.9-7.4c-1.1-2.3-2.1-4.9-2.9-7.5l-7.5-5.2c-.6-.4-.9-1.1-.9-1.8l.6-17.3c0-.7.4-1.4 1-1.7l7.9-4.7c.9-2.6 2.1-5 3.4-7.2l-1.4-7.5c-.1-.7.1-1.4.6-1.9l12.7-11.8c.5-.5 1.3-.7 2-.5l7.4 1.9c2.4-1.2 4.9-2.1 7.4-2.9l5.2-7.5c.4-.6 1.1-1 1.8-.9l17.3.6c.7 0 1.4.4 1.7 1l4.7 7.9c2.5.9 4.9 2 7.2 3.4l7.6-1.4c.7-.1 1.4.1 1.9.6l11.8 12.7c.5.5.7 1.3.5 2l-1.9 7.4c1.2 2.4 2.1 4.9 2.9 7.4l7.5 5.2c.6.4.9 1.1.9 1.8l-.6 17.3c0 .7-.4 1.4-1 1.7l-7.9 4.7c-.9 2.6-2.1 5-3.4 7.2l1.4 7.5c.1.7-.1 1.4-.6 1.9L367.3 220c-.5.5-1.3.7-2 .5l-7.4-1.9c-2.4 1.2-5 2.1-7.5 2.9l-5.2 7.5c-.3.6-1 1-1.7 1zm-16-4.8l15 .5 5-7.2c.3-.4.7-.7 1.2-.8 2.8-.7 5.5-1.8 8.2-3.1.4-.2 1-.3 1.5-.2l7 1.8 11-10.2-1.3-7.2c-.1-.5 0-1 .3-1.5 1.4-2.4 2.7-5 3.7-7.8.2-.5.5-.9.9-1.2l7.5-4.5.5-15-7.2-5c-.4-.3-.7-.6-.8-1.1v-.2c-.8-2.8-1.8-5.5-3.1-8.1-.2-.5-.3-1-.2-1.5l1.8-7.1-10.2-11-7.2 1.3c-.5.1-1 0-1.5-.3-2.5-1.5-5.1-2.7-7.8-3.7-.2-.1-.3-.1-.4-.2-.3-.2-.5-.4-.7-.7l-4.5-7.5-15-.5-5 7.2c-.3.4-.7.7-1.2.9-2.8.8-5.5 1.8-8.1 3.1-.5.2-1 .3-1.5.2l-7.1-1.8-11 10.3 1.3 7.2c.1.5 0 .9-.2 1.3 0 .1-.1.1-.1.2-1.5 2.4-2.7 5.1-3.7 7.9-.2.5-.5.9-.9 1.1l-7.5 4.5-.5 15 7.2 5c.4.3.7.7.8 1.2.8 2.9 1.8 5.6 3.1 8.1.1.1.1.3.2.5.1.3.1.7 0 1l-1.8 7.1 10.2 11 7.1-1.3c.5-.1 1 0 1.5.3 2.5 1.5 5.2 2.7 7.9 3.7.5.2.9.5 1.2.9l4.4 7.4zm24.7-94.8zm-15.5 75.8h-1.1c-17.4-.6-31.2-15.3-30.6-32.7.6-17.4 15.3-31.1 32.7-30.6 17.4.6 31.2 15.3 30.6 32.7-.3 8.4-3.9 16.3-10 22-5.9 5.6-13.5 8.6-21.6 8.6zm0-59.1c-14.7 0-26.9 11.7-27.4 26.5-.5 15.1 11.4 27.8 26.5 28.4 7.3.2 14.3-2.4 19.7-7.4 5.4-5 8.4-11.8 8.7-19.1.5-15.1-11.4-27.8-26.5-28.4h-1z"/><path class="st1" d="M383.4 105.3l-7.1-1.9-2-7.2 2.8-2.8 3 6.2 6.1 2.9z"/><path class="st1" d="M383.9 100.5c1.3-1.3 1.3-3.4 0-4.7a3.32 3.32 0 00-4.7 0l3.6-5.4 4.8 2.4 1 5-4.7 2.7z"/><path class="st2" d="M376.6 94l5.3-5.3 7.2 1.9 1.9 7.2-5.3 5.3-7.2-1.9-1.9-7.2zm9.5 4.3c1.3-1.3 1.3-3.4 0-4.7a3.32 3.32 0 00-4.7 0 3.32 3.32 0 000 4.7c1.3 1.3 3.4 1.3 4.7 0z"/><g><path class="st1" d="M90.2 296.7l3.9-1 1-3.9-1.5-1.5-1.6 3.3-3.3 1.6z"/><path class="st1" d="M90 294.1c-.7-.7-.7-1.8 0-2.5s1.8-.7 2.5 0l-1.9-2.9L88 290l-.6 2.7 2.6 1.4z"/><path class="st2" d="M93.9 290.6l-2.8-2.8-3.8 1-1 3.8 2.8 2.8 3.8-1 1-3.8zm-5.1 2.3c-.7-.7-.7-1.8 0-2.5s1.8-.7 2.5 0 .7 1.8 0 2.5-1.8.7-2.5 0z"/></g><g><path class="st2" d="M76.4 85.7l3.2 3.2c.8.8 2.2.8 3 0 .8-.8.8-2.2 0-3l-3.2-3.2c-.8-.8-2.2-.8-3 0-.9.8-.9 2.1 0 3z"/><path class="st1" d="M74.1 77.7c2.5-.9 5.1.3 6 2.6.8 2.3-.5 4.9-3 5.8-2.5.9-5.1-.3-6-2.6-.8-2.3.5-4.9 3-5.8z"/><path transform="scale(-1) rotate(70.244 116.427 -107.508)" class="st2" d="M74.9 76.8h1.4v10.1h-1.4z"/></g></g><g id="Shadow_1_"><ellipse id="_x3C_Path_x3E__373_" cx="250" cy="416.2" rx="193.9" ry="11.3" fill="#f5f5f5"/></g><g id="Oops_x21_"><path class="st8" d="M109.2 102.2c-1-4.4-.6-8.1 1.3-11.1s5-5 9.4-6c4.5-1 8.2-.6 11.2 1.3s5 5 5.9 9.3c.7 3.2.8 5.9.2 8.1-.6 2.3-1.8 4.2-3.5 5.8-1.8 1.6-4.1 2.7-7.1 3.4-3 .7-5.7.8-7.9.3s-4.2-1.7-5.9-3.5c-1.7-2-2.9-4.5-3.6-7.6zm8.3-1.9c.6 2.7 1.6 4.6 2.9 5.5 1.3 1 2.8 1.2 4.5.8 1.8-.4 3-1.3 3.8-2.7.7-1.4.7-3.6 0-6.6-.6-2.5-1.5-4.3-2.8-5.2-1.3-.9-2.8-1.2-4.6-.8-1.7.4-2.9 1.3-3.6 2.7-.7 1.5-.8 3.5-.2 6.3zM141.1 98.9c-.7-3-.2-5.7 1.3-8.1 1.6-2.4 4.1-4 7.5-4.8 3.9-.9 7.1-.4 9.6 1.4 2 1.5 3.3 3.5 3.9 6.2.7 3 .2 5.7-1.3 8.1-1.6 2.4-4.1 4-7.6 4.8-3.1.7-5.9.5-8.2-.7-2.7-1.4-4.5-3.7-5.2-6.9zm7.5-1.8c.4 1.7 1 2.9 1.9 3.6.9.7 1.9.9 2.9.6 1.1-.2 1.9-.9 2.4-1.8.5-1 .6-2.4.1-4.2-.4-1.7-1-2.9-1.9-3.5-.9-.7-1.8-.9-2.9-.7-1.1.2-1.9.9-2.4 1.9-.5 1-.5 2.4-.1 4.1zM171 110.1l-6.1-27 7-1.6.7 2.9c.7-1.4 1.4-2.5 2.1-3.1 1-.8 2.1-1.4 3.4-1.7 2.6-.6 4.9-.1 6.7 1.6 1.9 1.7 3.2 4 3.8 6.9.7 3.3.5 5.9-.6 8-1.2 2.1-2.9 3.4-5.3 3.9-1.2.3-2.2.3-3.3.1-1-.2-2-.6-2.9-1.2l2.1 9.3-7.6 1.9zm3.7-18.9c.4 1.5.9 2.6 1.8 3.2.8.6 1.7.8 2.7.6.9-.2 1.5-.7 1.9-1.6.4-.9.4-2.1.1-3.9-.4-1.6-.9-2.7-1.7-3.3-.8-.6-1.6-.8-2.5-.6-1 .2-1.7.8-2.1 1.7-.6.9-.6 2.2-.2 3.9zM191.9 91.8l7.3-2.4c.5.8 1.1 1.3 1.7 1.6.6.3 1.4.3 2.3.1 1-.2 1.7-.6 2.2-1.2.4-.4.5-.9.4-1.3-.1-.5-.5-.9-1.1-1.1-.5-.1-1.6-.1-3.4 0-2.7.1-4.6.1-5.7 0-1.1-.2-2.1-.6-3-1.4-.9-.8-1.5-1.7-1.8-2.9-.3-1.3-.2-2.5.4-3.6.5-1.1 1.4-2 2.6-2.8 1.2-.8 2.9-1.4 5.1-1.9 2.3-.5 4.1-.7 5.3-.6 1.2.1 2.2.4 3.2 1 .9.6 1.8 1.5 2.5 2.6l-6.9 2.3c-.3-.6-.7-1-1.2-1.2-.7-.3-1.4-.3-2.3-.1-.8.2-1.4.5-1.7.9-.3.4-.4.8-.3 1.2.1.5.4.8 1 .9.5.1 1.7.1 3.4-.1 2.6-.3 4.5-.3 5.8-.1 1.3.2 2.4.7 3.3 1.5.9.8 1.4 1.7 1.7 2.9.3 1.1.2 2.3-.3 3.5-.4 1.2-1.3 2.3-2.6 3.3s-3.2 1.7-5.8 2.3c-3.6.8-6.2.9-8 .2-1.9-.6-3.3-1.8-4.1-3.6zM216.3 67.1h8.2v6.3L223 86h-5.1l-1.6-12.7v-6.2zm.4 20.9h7.7v6.8h-7.7V88z"/></g><g id="_x34_04"><path class="st8" d="M161.7 161.7h-.2c-4.5-1.7-7.2-3.4-8.6-5.5-1 .2-2.2.1-3.2-.4s-2.1-1.4-2.8-2.6c-.7.5-1.5.7-2.4.4-1-.3-2.1-1.2-3-2.4-.6.4-1.1.5-1.6.4-3-.2-7-6.2-7.3-12.5 0-.3.2-.5.5-.5s.5.2.5.5c.3 6 4.1 11.3 6.4 11.5.4 0 .7-.1.9-.3-1.4-2.4-2.1-5.8-1-9.4.9-3 1.6-4.2 2.5-4 1.7.4 1.5 7 .6 11.3-.2 1-.5 1.7-.8 2.2.8 1.2 1.7 1.9 2.5 2.2.7.2 1.3 0 1.7-.3-.8-1.9-.9-4.6.1-7.9 1.4-4.4 2-4.5 2.3-4.6.2-.1.5 0 .6.2.9 1-.2 7.9-1.3 11.3-.2.4-.3.8-.6 1.2.6 1.2 1.5 2 2.5 2.5.8.4 1.6.5 2.3.4-.1-.2-.2-.4-.2-.6-.8-2.1-.4-4.6 1.2-7.6 1.1-2 1.9-2.9 2.7-2.9.2 0 .7.1 1 .7.9 1.6.2 6.9-1.5 9.6-.4.6-1 1.1-1.6 1.4 1.3 1.8 3.9 3.3 7.9 4.9.3.1.4.4.3.6 0 .1-.2.2-.4.2zm-5.6-16.5s-.6 0-1.8 2.3c-1.4 2.7-1.8 4.9-1.1 6.8.1.2.2.5.3.7.5-.2 1-.6 1.3-1.1 1.4-2.1 2.1-6.5 1.5-8.3-.1-.3-.2-.4-.2-.4zm-7.2-4.2c-.3.5-.7 1.5-1.3 3.5-.9 2.7-.9 4.9-.4 6.5 0-.1.1-.2.1-.3 1.1-3.3 1.7-8.1 1.6-9.7zm-6.6-3.2c-.2.2-.7.8-1.4 3.2-.9 3.2-.4 6.1.7 8.2.2-.4.4-.9.5-1.4 1.1-4.8.8-9.2.2-10zM168.5 238.5c-1.3-.8-2.4-2-3.2-3.5-.1-.2 0-.5.2-.7.2-.1.5 0 .7.2 1.8 3.7 6.5 5 8.1 4.3.2-.1.4-.2.5-.5-1.3-.6-2.5-1.9-3.5-4-1.3-2.7-1.2-3.2-.9-3.5.1-.2.3-.3.6-.3 1.1.1 3.7 4.3 4.6 6.4.1.3.2.5.2.8.8.3 1.6.3 2.2.1.4-.1.8-.3 1.1-.6-.1 0-.1-.1-.2-.1-1.4-.7-2.4-2.2-3-4.5-.4-1.6-.4-2.4.1-2.8.1-.1.5-.3 1-.2 1.3.5 3.4 3.6 3.7 5.6.1.5 0 .9-.1 1.3 1.4.2 3.3-.2 6-1.2.3-.1.5 0 .6.3.1.3 0 .5-.3.6-3 1.2-5.2 1.6-6.8 1.2-.4.6-1.1 1-1.8 1.2-.8.2-1.7.3-2.6 0-.2.4-.5.8-1 1-1.3.8-3.9.4-6.2-1.1zm3.1-6.3c.1.4.4.9.7 1.7.7 1.5 1.5 2.4 2.3 3.1-.8-1.8-2.1-3.7-3-4.8zm5.2-1.6c0 .2-.1.6.2 1.8.5 2 1.3 3.2 2.4 3.8.1 0 .2.1.3.1.1-.3.1-.6.1-.9-.2-2-2.3-4.6-3-4.8z"/><path class="st9" d="M305.4 143c-.6-5.3-1.6-10.1-3.2-14.2-1.5-4.1-3.9-8.2-7-12.2s-7.3-7.4-12.7-10.4c-5.4-2.9-12.4-5-21.2-6.1-18.3-2.4-32.6.9-42.8 9.7-10.2 8.9-17 25.9-20.2 51-1.3 10.2-1.6 19.7-1 28.3.7 8.7 2.3 15.7 4.8 20.9 3.5 7.4 8.3 13.3 14.6 17.8 6.3 4.4 15 7.4 25.9 8.8 19.6 2.6 34.1-1.2 43.6-11.3 9.4-10.1 15.7-27.1 18.8-51.1 1.5-10.6 1.6-21 .4-31.2z"/><path class="st8" d="M251.8 226.4c-2.4-.1-5-.3-7.6-.6-9.2-1.2-16.2-3.5-21.1-6.9-4.8-3.3-8.3-7.7-11-13.4v-.1c-1.9-4-3.2-9.8-3.7-17-.6-7.9-.3-16.7.9-26.1 3.6-27.7 10.9-39.3 16.5-44.1 6.5-5.6 15.2-8.2 26.7-7.8 2.4.1 4.9.3 7.4.6 7.4 1 13.2 2.6 17.4 4.9 4 2.2 7.1 4.7 9.3 7.5 2.4 3.1 4.2 6.2 5.4 9.3 1.2 3.3 2.1 7.2 2.6 11.6 1.1 9.3 1 19-.3 28.7-2.8 21.5-8.1 36.7-15.9 45-5.9 6.1-14.6 8.8-26.6 8.4z"/><path class="st9" d="M271.3 143.3l.1-3.8-2.3-.8c-.1-1.3-.3-2.6-.6-3.8l2-1.5-1.3-3.6-2.4.2c-.6-1.2-1.3-2.2-2-3.3l1.3-2.1-2.6-2.8-2.2 1.1c-1-.8-2-1.6-3.1-2.3l.4-2.4-3.5-1.6-1.6 1.9c-1.2-.4-2.5-.7-3.8-.9l-.6-2.4-3.8-.1-.8 2.3c-1.3.1-2.6.3-3.8.6l-1.5-2-3.6 1.3.2 2.4c-1.2.6-2.2 1.3-3.3 2l-2.1-1.3-2.8 2.6 1.1 2.2c-.8 1-1.6 2-2.2 3.1l-2.4-.4-1.6 3.5 1.9 1.6c-.4 1.2-.7 2.5-.9 3.8l-2.4.6-.1 3.8 2.3.8c.1 1.3.3 2.6.6 3.8l-2 1.5 1.3 3.6 2.4-.2c.6 1.2 1.3 2.2 2 3.3l-1.3 2.1 2.6 2.8 2.2-1.1c1 .8 2 1.6 3.1 2.3l-.4 2.4 3.5 1.6 1.6-1.9c1.2.4 2.5.7 3.8.9l.6 2.4 3.8.1.8-2.3c1.3-.1 2.6-.3 3.8-.6l1.5 2 3.6-1.3-.2-2.4c1.2-.6 2.2-1.3 3.3-2l2.1 1.3 2.8-2.6-1.1-2.2c.8-1 1.6-2 2.2-3.1l2.4.4 1.6-3.5-1.9-1.6c.4-1.2.7-2.5.9-3.8l2.4-.6zm-25.6 12.3c-8.3-.3-14.8-7.2-14.5-15.5.3-8.3 7.2-14.8 15.5-14.5 8.3.3 14.8 7.2 14.5 15.5-.2 8.2-7.2 14.7-15.5 14.5z"/><path d="M287.1 212.9l.3-2.6-1.5-.6c0-.9-.1-1.7-.2-2.6l1.4-.9-.7-2.5h-1.7c-.3-.8-.7-1.6-1.2-2.3l.9-1.4-1.6-2-1.5.6c-.6-.6-1.3-1.2-2-1.7l.4-1.6-2.3-1.2-1.2 1.2c-.8-.3-1.6-.6-2.5-.8l-.3-1.6-2.6-.3-.6 1.5c-.9 0-1.7.1-2.6.2l-.9-1.4-2.5.7v1.7c-.8.3-1.6.7-2.3 1.2l-1.4-1-2 1.6.6 1.5c-.6.6-1.2 1.3-1.7 2l-1.6-.4-1.2 2.3 1.2 1.2c-.3.8-.6 1.6-.8 2.5l-1.6.3-.3 2.6 1.5.6c0 .9.1 1.7.2 2.6l-1.4.9.7 2.5h1.7c.3.8.7 1.6 1.2 2.3l-1 1.4 1.6 2 1.5-.6c.6.6 1.3 1.2 2 1.7l-.1 1.5 2.3 1.2 1.2-1.2c.8.3 1.6.6 2.5.8l.3 1.6 2.6.3.6-1.5c.9 0 1.7-.1 2.6-.2l.9 1.4 2.5-.7V224c.8-.3 1.6-.7 2.3-1.2l1.3 1 2-1.6-.6-1.5c.6-.6 1.2-1.3 1.7-2l1.6.4 1.2-2.3-1.2-1.2c.3-.8.6-1.6.8-2.5l1.5-.2zm-12.9-1c-1.2 2.2-3.9 3-6.1 1.8-2.2-1.2-2.9-3.9-1.8-6.1 1.2-2.2 3.9-2.9 6.1-1.8 2.2 1.2 3 3.9 1.8 6.1z" opacity=".3" fill="#50a334"/><path class="st11" d="M301.3 169.6l-3-2.1c-.3-1.1-.7-2.1-1.2-3.1l.8-3-4.3-4.6-3 .6c-.9-.6-2-1-3-1.4l-1.9-3.1-6.3-.2-2.1 3c-1.1.3-2.1.7-3.1 1.2l-3-.8-4.6 4.3.6 3c-.6 1-1 2-1.4 3l-3.1 1.8-.2 6.3 3 2.1c.3 1.1.7 2.1 1.2 3.1l-.8 3 4.3 4.6 3-.6c1 .6 2 1 3 1.4l1.8 3.1 6.3.2 2.1-3c1.1-.3 2.1-.7 3.1-1.2l3 .8 4.6-4.3-.6-3c.6-1 1-2 1.4-3l3.1-1.9.3-6.2zm-19.7 9.7c-3.9-.1-7-3.4-6.9-7.4.1-3.9 3.4-7 7.4-6.9 3.9.1 7 3.4 6.9 7.4-.2 3.9-3.5 7-7.4 6.9z"/><path class="st9" d="M323 119.1l.5-1.3c.4-.2.7-.4 1-.7h1.2l1.4-2-.4-1.1.3-1.2 1-.9-.4-2.3-1.3-.5c-.2-.4-.4-.7-.7-1v-1.2l-2-1.4-1.1.4-1.2-.3-.9-1-2.3.4-.5 1.3c-.4.2-.7.4-1.1.7h-1.2l-1.4 2 .4 1.1-.3 1.2-1 .9.4 2.3 1.3.5c.2.4.4.7.7 1.1v1.2l2 1.4 1.1-.4 1.2.3.9 1 2.4-.5zm-5-6.5c-.3-1.5.7-2.8 2.2-3.1 1.5-.3 2.8.7 3.1 2.2s-.7 2.8-2.2 3.1c-1.5.3-2.9-.7-3.1-2.2zM295.6 112.5l-.8-.6c1.3-1.6 3.2-3.6 6-5l.5.9c-3 1.5-4.9 3.7-5.7 4.7zM303.6 106.8l-.4-.9c3.8-1.6 7.7-2.3 11.7-1.9l-.1 1c-3.8-.4-7.6.2-11.2 1.8zM301.7 113.7l-.8-.6c2.1-3 6.1-5.6 9.9-6.4l.2 1c-3.6.7-7.4 3.2-9.3 6z"/><path class="st11" d="M235.3 210c-.1 0-.3-.1-.4-.2l-2.1-2.2c-1.1-.1-2.1-.3-3.1-.6l-3.3 1.4c-.2.1-.3.1-.5 0l-5.5-3.6c-.1-.1-.2-.3-.2-.4l.1-3.6c-.7-.8-1.3-1.7-1.8-2.7l-2.8-1.1c-.2-.1-.3-.2-.3-.4l-1.3-6.4c0-.2 0-.3.1-.5l2.2-2.1c.1-1.1.3-2.1.6-3.1l-1.4-3.3c-.1-.2-.1-.3 0-.5l3.6-5.5c.1-.1.2-.2.4-.2l3.6.1c.8-.7 1.7-1.3 2.7-1.8l1.1-2.8c.1-.2.2-.3.4-.3l6.4-1.3c.2 0 .3 0 .5.1l2.1 2.2c1.1.1 2.1.3 3.2.6l3.3-1.4c.2-.1.3-.1.5 0l5.5 3.6c.1.1.2.3.2.4l-.1 3.6c.7.8 1.3 1.7 1.8 2.7l2.8 1.1c.2.1.3.2.3.4l1.3 6.4c0 .2 0 .3-.1.5l-2.2 2.1c-.1 1.1-.3 2.1-.6 3.1l1.4 3.3c.1.2.1.3 0 .5l-3.6 5.5c-.1.1-.2.2-.4.2l-3.6-.1c-.8.7-1.7 1.3-2.7 1.8l-1.1 2.8c-.1.2-.2.3-.4.3l-6.6 1.4c.1 0 .1 0 0 0zm-5.6-4h.1c1.1.3 2.2.5 3.3.6.1 0 .2.1.3.2l2 2.1 5.9-1.2 1.1-2.7c0-.1.1-.2.2-.3 1-.5 2-1.1 2.8-1.9.1-.1.2-.1.3-.1l3.5.1 3.3-5-1.4-3.2c0-.1-.1-.2 0-.3.3-1.1.5-2.2.6-3.3 0-.1.1-.2.1-.3l2.1-2-1.2-5.9-2.7-1.1c-.1 0-.2-.1-.3-.2-.5-1-1.1-1.9-1.9-2.8-.1-.1-.1-.2-.1-.3l.1-3.5-5-3.3-3.2 1.4c-.1 0-.2.1-.3 0-1.1-.3-2.2-.5-3.3-.6-.1 0-.2-.1-.3-.1l-2-2.1-5.9 1.2-1.1 2.7c0 .1-.1.2-.2.3-1 .5-1.9 1.1-2.8 1.9-.1.1-.2.1-.3.1l-3.5-.1-3.3 5 1.4 3.2c.1.1.1.3 0 .4-.3 1-.5 2.1-.6 3.2 0 .1-.1.2-.1.3l-2.1 2 1.2 5.9 2.7 1.1c.1 0 .2.1.3.3.5 1 1.1 1.9 1.8 2.8.1.1.1.2.1.3l-.1 3.5 5 3.3 3.2-1.4c.2-.2.2-.2.3-.2zm4.9-3.2c-2.5 0-5.1-.7-7.3-2.2-3-2-5-5-5.7-8.5-.7-3.5 0-7 1.9-10 4.1-6.1 12.4-7.8 18.5-3.8 6.1 4.1 7.8 12.3 3.7 18.5-2.5 3.9-6.8 6-11.1 6zm-10.2-20.1c-1.8 2.7-2.5 6-1.8 9.3.7 3.2 2.5 6 5.3 7.8 5.7 3.8 13.3 2.2 17.1-3.5 3.8-5.7 2.2-13.3-3.5-17.1-5.7-3.8-13.4-2.2-17.1 3.5z"/></g><g id="Character_1_"><path class="st8" d="M222.5 304.8c1.4-22.4-1.2-63.1 40.9-57.7 45.1 5.8 32.2 58.6 32.2 58.6l-73.1-.9z"/><circle class="st11" cx="251.5" cy="273" r="18.4"/><path class="st8" d="M253.9 254.7c-8.7-1.5-18 4.9-18.9 11.4l34.5 3.2c-1.2-7.5-8.7-13.5-15.6-14.6z"/><path class="st8" d="M265.6 272.5c-.2 4.8-2.9 8.6-5.8 8.4s-5.2-4.2-5-9c.2-4.8 2.9-8.6 5.8-8.4 3 .2 5.2 4.2 5 9z"/><path class="st9" d="M251.5 292.4c-10.7 0-19.4-8.7-19.4-19.4s8.7-19.4 19.4-19.4 19.4 8.7 19.4 19.4-8.7 19.4-19.4 19.4zm0-36.8c-9.6 0-17.4 7.8-17.4 17.4s7.8 17.4 17.4 17.4c9.6 0 17.4-7.8 17.4-17.4s-7.8-17.4-17.4-17.4z"/><path class="st12" d="M290.5 304.3h-.1c-.3-.1-.4-.3-.4-.6 0-.1 3.2-13.7-.1-27.4-.1-.3.1-.5.4-.6.3-.1.5.1.6.4 3.4 14 .1 27.7.1 27.9-.1.1-.3.3-.5.3zM287.7 268.8c-.2 0-.4-.1-.5-.3-1.3-2.8-2.9-5.4-4.7-7.7-.2-.2-.1-.5.1-.7.2-.2.5-.1.7.1 1.9 2.3 3.6 5 4.9 7.9.1.3 0 .5-.2.7-.2-.1-.2 0-.3 0z"/><path class="st8" d="M128.7 409.9h-.4c-2.8-.1-4.9-2.4-4.9-5.1.1-2.8 2.3-4.9 5.1-4.9h.1c2.9 0 9.8-3.5 24.4-26.4.8-1.2 2.1-2.1 3.5-2.3 1.4-.2 2.9.2 4 1.2 17.9 15.6 37 25.4 37.1 25.5 2.5 1.2 3.4 4.3 2.2 6.7-1.2 2.5-4.3 3.4-6.7 2.2-.8-.4-17.4-8.9-34.8-23.1-12 18.3-21.1 26.2-29.6 26.2z"/><path class="st8" d="M159.7 371.5h-.4c-1.6-.2-2.8-1.8-2.5-3.4.7-5-.2-23.6-6.5-38.1-.6-1.3-.1-2.9 1.1-3.7 13.7-9.3 42.9-10.5 44.1-10.5 1.6 0 3 1.2 3.1 2.9.1 1.7-1.2 3-2.9 3.1-.3 0-25.8 1-38.9 8.2 5.6 14.4 6.8 32.4 5.9 38.9-.3 1.5-1.6 2.6-3 2.6z"/><path class="st9" d="M164.7 367.6c-2-4.7-11-4.2-16.3-.1-2.8 2.2-6.6 8.6-7 11-.4 2.4 1.2 4.5 4 4.2 3.4-.3 8.2-5.3 8.2-5.3-3.1 3.1.9 5.3 7 .8 3.3-2.5 6.3-5.3 4.1-10.6z"/><path class="st8" d="M336.7 306.2h-.1c-.3-.1-.4-.4-.3-.6 1.3-4.6 2.8-7.5 4.7-9.1-.3-1-.3-2.1.2-3.3.4-1.1 1.2-2.2 2.4-3-.6-.6-.8-1.4-.6-2.4.2-1 1-2.2 2.1-3.2-.5-.5-.6-1.1-.6-1.5 0-3 5.5-7.5 11.8-8.4.3-.1.5.2.6.4 0 .3-.2.5-.4.6-5.9.8-10.9 5.1-10.9 7.4 0 .4.1.7.4.9 2.3-1.6 5.6-2.6 9.3-1.9 3.1.6 4.3 1.2 4.2 2.2-.3 1.8-6.8 2.1-11.2 1.6-1-.1-1.7-.4-2.2-.6-1.1.9-1.8 1.9-2 2.7-.2.7.1 1.3.5 1.6 1.9-1 4.5-1.4 7.9-.6 4.5 1 4.7 1.6 4.8 1.9.1.2 0 .5-.2.7-1 1-7.9.5-11.4-.3-.5-.1-.9-.3-1.2-.5-1.2.7-1.9 1.7-2.3 2.7-.3.8-.4 1.6-.2 2.3l.6-.3c2.1-1 4.6-.8 7.7.5 2 .9 3 1.7 3.1 2.4 0 .2 0 .7-.6 1-1.5 1-6.9.9-9.6-.6-.7-.3-1.2-.9-1.5-1.5-1.6 1.5-3 4.2-4.2 8.4-.4.3-.6.5-.8.5zm5.4-9.4c.3.5.7.9 1.2 1.2 2.3 1.2 6.7 1.5 8.4.8.3-.1.4-.3.4-.3s-.1-.6-2.5-1.6c-2.8-1.2-5-1.4-6.8-.5-.2.2-.5.3-.7.4zm3.4-6.5c.1 0 .2 0 .3.1 3.5.9 8.3 1 9.9.7-.5-.2-1.5-.6-3.6-1-2.9-.7-5-.5-6.6.2zm1.2-5.7c.5.2 1 .3 1.4.3 5 .6 9.4-.1 10-.7-.2-.2-.8-.6-3.3-1.1-3.2-.5-6.1.3-8.1 1.5zM206.5 408.2c.7-.2.4-.8-.3-.8h-13.5c-25.8-2.7-43.8.9-32.4 1.8 11.4.9-.8.7-9.1 3.8-8.3 3.1 61.7 3.9 68 0 5.8-3.6-21.8-1.8-12.7-4.8z"/><path class="st9" d="M303.5 412.2l-117.8-3.9-4.9-114.2 139.1 3.1z"/><path class="st8" d="M222.5 410.1c-.3 0-.5-.2-.5-.5l-9.4-114.7c0-.3.2-.5.5-.5s.5.2.5.5l9.4 114.7c0 .2-.2.4-.5.5z"/><path class="st9" d="M303.5 412.2l31.6-4.8 10-106.2-25.2-4z"/><path class="st13" d="M303.5 412.2l31.6-4.8 10-106.2-25.2-4z"/><path class="st8" d="M195.7 386.3l-2.9-67.9c-.3-7.1 5.4-12.9 12.5-12.8l88.1 2c7.4.2 12.9 6.7 11.9 14l-9.8 68.4c-.9 6.2-6.3 10.7-12.6 10.5l-75.4-2.5c-6.3-.2-11.5-5.3-11.8-11.7z"/><path class="st11" d="M284.7 361.9c-.4 0-.7-.1-1-.4l-8.6-9.4-9.2 8.4c-.5.5-1.4.5-1.9-.1l-8.6-9.4-9.2 8.4c-.5.5-1.4.5-1.9-.1l-8.6-9.4-9.2 8.4c-.3.2-.6.4-.9.3-.3 0-.7-.2-.9-.4l-8.6-9.4-9.2 8.4c-.5.5-1.4.5-1.9-.1-.5-.5-.5-1.4.1-1.9l10.2-9.3c.5-.5 1.4-.5 1.9.1l8.6 9.4 9.2-8.4c.3-.2.6-.4.9-.3.3 0 .7.2.9.4l8.6 9.4 9.2-8.4c.5-.5 1.4-.5 1.9.1l8.6 9.4 9.2-8.4c.5-.5 1.4-.5 1.9.1l9.4 10.3c.5.5.5 1.4-.1 1.9-.2.3-.5.4-.8.4z"/><path class="st9" d="M125.8 414.7l-6.3-3-5.6-27.2 3-3.3z"/><path class="st9" d="M125.8 414.7l8.3-4.9-7.2-22.4-10-6.2z"/><path class="st13" d="M125.8 414.7l8.3-4.9-7.2-22.4-10-6.2z"/><path class="st8" d="M261.9 419.6h-.7c-2.8-.1-4.9-2.4-4.9-5.1.1-2.8 2.4-4.9 5.1-4.9 7.7.3 24-4.5 33.3-13.5.6-.6 1.3-1 2-1.2 15.8-4.7 21.7 4.8 21.9 5.2l-8.6 5.1s0 .1.1.2c-.1-.1-2.3-3-9.5-1.2-11.4 10.6-29.4 15.4-38.7 15.4z"/><path class="st9" d="M261.4 426.3l-18.2-1.2-1.5-33.6 24.5.9zM261.4 426.3l4.3-4.3 2.6-20.9-2.1-8.7z"/><path class="st13" d="M261.4 426.3l4.3-4.3 2.6-20.9-2.1-8.7z"/><path class="st8" d="M366.9 413.5c-.6 0-1.3-.2-1.8-.6-10.4-7.9-24.4-21.9-29.8-35.5-.1-.2-.1-.4-.2-.6-2.6-15.6-5.1-48.5-5.2-49.9-.1-1.7 1.1-3.1 2.8-3.2 1.6-.1 3.1 1.1 3.2 2.8 0 .3 2.6 33.6 5.1 49.1 5.4 13.2 20 26.7 27.8 32.6 1.3 1 1.6 2.9.6 4.2-.7.7-1.6 1.1-2.5 1.1zM380.8 415.1c-2.3 0-4.9-1.1-7.8-3.1-1.3-1-1.6-2.8-.7-4.2 1-1.3 2.8-1.6 4.2-.7 2.5 1.8 3.8 2 4.3 2 1.7 0 3 1.3 3 3 0 1.6-1.4 3-3 3z"/><path class="st9" d="M373.8 411.8c3.2-9.5 16.4-7.7 20.9-6.2 4.5 1.4 8.6 3.2 11.1 4.8 2.5 1.6 2.5 4.3-.8 5.8-4 1.9-14.2.2-14.2.2 5.2 2.3 0 6-9.2 2.4-3-1.2-8.9-3.5-7.8-7z"/><path class="st8" d="M341.9 331c-1.2 8.1-7.9 14.1-13.4 13.3-5.5-.8-5.7-8-4.5-16.1 1.2-8.1 3.3-14 8.8-13.2 5.5.8 10.3 7.9 9.1 16z"/><circle class="st8" cx="209.9" cy="297.9" r=".8"/><path class="st8" d="M218.2 303.8c0 .5-.4.8-.8.8s-.8-.4-.8-.8c0-.5.4-.8.8-.8s.8.3.8.8zM219.1 400.7c0 .5-.4.8-.8.8-.5 0-.8-.4-.8-.8 0-.5.4-.8.8-.8.5 0 .8.3.8.8zM226.6 406.6c0 .5-.4.8-.8.8-.5 0-.8-.4-.8-.8 0-.5.4-.8.8-.8.5 0 .8.3.8.8z"/></g><g id="Robot_Parts"><path class="st8" d="M82.5 416.4c-2.4 0-5.6-1.4-7.3-3.9-.2-.2-.1-.5.1-.7.2-.2.5-.1.7.1 1.9 2.7 6 4.1 7.8 3.3.2-.1.3-.2.5-.3-1.6-.8-3.1-2.2-3.5-4.5-.2-1.3-.4-3 .6-3.2 1.4-.3 3.3 3.1 4 5.8.1.5.2.9.1 1.3.6.2 1.3.2 1.8.1.4-.1 1-.2 1.4-.7-1.2-.8-2-2.3-2.3-4.2-.4-2.7-.1-3.2.2-3.4.2-.2.4-.2.7-.1 1.1.5 2.4 4.3 2.6 6.5v.7c.4.2.9.3 1.3.3.9 0 1.7-.2 2.4-.6-.1-.1-.3-.2-.4-.3-1-.9-1.5-2.3-1.3-4.3.1-1.6.5-2.4 1.1-2.7.2-.1.7-.2 1.2.2 1.1.9 2.1 3.6 1.7 5.6-.1.4-.2.8-.5 1.2 1.8.3 4.4-.2 6.6-.7.3-.1.5.1.6.4.1.3-.1.5-.4.6-2.7.7-5.6 1.2-7.7.6-.9.7-2.2 1.2-3.5 1.2-.6 0-1.1-.1-1.6-.3-.4.7-1.1 1.1-2.1 1.3-.7.1-1.4 0-2.2-.2-.2.4-.6.7-1 .9-.4-.1-.9 0-1.6 0zm-.9-8.3c-.1.2-.2.7.1 2 .3 1.8 1.5 3.1 2.8 3.7 0-.2 0-.4-.1-.7-.7-2.8-2.2-4.7-2.8-5zm5.6-.8c0 .4 0 1 .2 2.1.2 1.4.7 2.5 1.5 3.2-.2-2.1-1.1-4.4-1.7-5.3zm6.3-.9s-.4.2-.5 1.9c-.1 1.7.2 2.8.9 3.5.2.2.4.3.6.4.3-.3.5-.7.5-1 .3-1.4-.4-3.6-1.2-4.4-.1-.4-.3-.4-.3-.4zM228.9 424l2.7-4.7-2.7-4.7H226l1.6 4.7-1.6 4.7z"/><path class="st8" d="M226.2 421.7c-1.3 0-2.4-1.1-2.4-2.5 0-1.3 1.1-2.4 2.4-2.4l-4.6-.9-1.2 3.7 2.1 3.1 3.7-1z"/><path class="st9" d="M226.6 414.6h-5.4l-2.7 4.7 2.7 4.7h5.4l2.7-4.7-2.7-4.7zm-2.8 7.1c-1.3 0-2.4-1.1-2.4-2.5 0-1.3 1.1-2.4 2.4-2.4 1.4 0 2.4 1.1 2.4 2.4.1 1.4-1 2.5-2.4 2.5z"/><g><path class="st9" d="M417.9 414.3l-2-3.5 2-3.5h2.1l-1.2 3.5 1.2 3.5z"/><path class="st9" d="M419.9 412.6c1 0 1.8-.8 1.8-1.8s-.8-1.8-1.8-1.8l3.4-.7.9 2.8-1.5 2.3-2.8-.8z"/><path class="st8" d="M419.6 407.3h4l2 3.5-2 3.5h-4l-2-3.5 2-3.5zm2 5.3c1 0 1.8-.8 1.8-1.8s-.8-1.8-1.8-1.8-1.8.8-1.8 1.8.8 1.8 1.8 1.8z"/></g><g><path class="st8" d="M342.9 418.9h4.5c1.2 0 2.1-1 2.1-2.1 0-1.2-1-2.1-2.1-2.1h-4.5c-1.2 0-2.1 1-2.1 2.1s1 2.1 2.1 2.1z"/><path class="st9" d="M335.7 414.9c1.1-2.4 3.8-3.4 6-2.4s3.1 3.8 2 6.2-3.8 3.4-6 2.4c-2.2-1.1-3.1-3.9-2-6.2z"/><path transform="rotate(-154.756 339.762 416.75)" class="st8" d="M339.1 411.7h1.4v10.1h-1.4z"/></g><g><path class="st9" d="M150.3 140l-46.4 16.8 4.1 19.3c2.4-1.3 4.7-2.1 7.6-3.2 11.4-4.1 24.1-5.8 34.6-2.7 11.2 2.8 20.3 10.8 25.4 24.8 8 22.3-4 48.9-36.2 60.5-14.5 5.3-27.9 6.3-35.8 5.2l-2.4-22.8c6.1.7 18.1.1 29-3.8 11.6-4.2 21.9-14.2 17.3-26.9-4.5-12.3-16.9-16.4-40.9-7.7-6.6 2.4-11.1 4.4-15.6 6.9l-15-65.6 66-23.8 8.3 23z"/><path class="st9" d="M139.7 256.5c-15.2 5.5-28.7 6.3-36.3 5.3l-.8-.1-2.7-25 1.3.2c6.6.8 18.3-.1 28.5-3.8 11.4-4.1 21-13.6 16.7-25.5-4.5-12.5-17.8-14.9-39.5-7.1-6.2 2.2-10.7 4.2-15.5 6.8l-1.2.7-15.5-67.8 67.8-24.5 9 25-46.5 16.8 3.6 17.1c2.1-1 4.1-1.7 6.5-2.6 12.9-4.7 25.4-5.6 35.3-2.7 12.1 3 21.2 11.8 26.1 25.4 7.8 21.3-2.4 49.4-36.8 61.8zm-35.1 3.3c7.4.9 20.1-.1 34.5-5.3 25-9 45.3-32.3 35.6-59.2-4.7-12.9-13.2-21.2-24.7-24.1-9.5-2.8-21.5-1.8-34 2.7-3 1.1-5.1 1.8-7.5 3.1l-1.2.7-4.5-21.6 46.3-16.7-7.6-21-64.1 23.1 14.4 63.3c4.4-2.3 8.8-4.2 14.5-6.3 23-8.3 37.2-5.5 42.2 8.3 4.8 13.3-5.6 23.7-18 28.2-9.9 3.6-21.2 4.6-28.2 4l2.3 20.8z"/></g><g><path class="st9" d="M422.5 199.6c-11 37.3-33.7 58.8-64.5 49.7-31.3-9.2-36.8-41.5-26.9-75.8 10.4-35.2 33.3-58.5 64.6-49.3 32.3 9.5 36.6 42.2 26.8 75.4zm-63-17.8c-8.2 27.8-5.4 43 5.4 46.2 11 3.2 21-8.8 29.2-36.4 7.9-26.9 6.3-42.7-5.1-46.1-10.2-3-21.2 8-29.5 36.3z"/><path class="st9" d="M357.7 250.3c-28.8-8.5-39.1-37.3-27.6-77.1 11.6-39.4 36.9-58.5 65.9-50 28.9 8.5 39.2 37.2 27.5 76.7-11.8 40.2-36.4 59.1-65.8 50.4zm37.7-125.1c-28.2-8.3-51.9 9.8-63.3 48.6-11.1 38.6-1.4 66.4 26.2 74.5 28.5 8.4 51.6-9.4 63.2-49 11.3-38.2 1.6-65.9-26.1-74.1zM364.6 229c-11.9-3.5-14.1-20.4-6.1-47.5 10.9-36.9 24-39 30.8-37 12 3.6 14 19.5 5.8 47.4-8.3 28.2-18.6 40.7-30.5 37.1zm24.1-82.4c-10.4-3.1-20.7 9.9-28.3 35.6-7.6 25.8-5.9 41.8 4.7 44.9 13.2 3.9 22.5-17.3 27.9-35.7 5.5-18.3 9.1-40.9-4.3-44.8z"/></g></g></svg>