<svg version="1.1" id="Capa_1" xmlns="http://www.w3.org/2000/svg" xmlns:xlink="http://www.w3.org/1999/xlink" x="0px" y="0px" width="1200px" height="1200px" viewBox="0 0 1200 1200" enable-background="new 0 0 1200 1200" xml:space="preserve">
<g>
	<radialGradient id="SVGID_1_" cx="503.2886" cy="784.3594" r="410.5126" gradientUnits="userSpaceOnUse">
		<stop offset="0" style="stop-color: rgb(99, 161, 64);"></stop>
		<stop offset="1" style="stop-color: rgb(99, 161, 64);"></stop>
	</radialGradient>
	<path fill-rule="evenodd" clip-rule="evenodd" fill="url(#SVGID_1_)" d="M127.937,423.842
		c88.527,72.754,174.621,148.357,261.262,223.534c12.969,11.257,21.238,10.631,34.219,0.772
		c214.352-162.831,428.965-325.185,643.699-487.391c35.676-26.938,65.699-28.617,75.406-20.158
		c14.266,12.442,14.266,43.563-56.207,126.499c-216.449,254.721-428.66,512.96-643.301,769.095
		c-8.914,10.631-20.344,18.553-30.605,27.727c-5.602,0-11.203,0-16.809,0c-12.258-15.564-26.844-29.509-36.414-46.972
		C257.433,831.242,156.483,644.969,55.3,458.85C33.612,420.109,82.55,386.544,127.937,423.842z"></path>
	<linearGradient id="SVGID_2_" gradientUnits="userSpaceOnUse" x1="665.8926" y1="220.853" x2="183.3966" y2="854.129">
		<stop offset="0" style="stop-color: rgb(66, 111, 40);"></stop>
		<stop offset="1" style="stop-color: rgb(66, 111, 40);"></stop>
	</linearGradient>
	<path fill-rule="evenodd" clip-rule="evenodd" fill="url(#SVGID_2_)" d="M1144.761,142.897
		c-119.559,119.6-650.105,650.525-673.512,677.272c-26.387,30.155-49.004,52.772-64.082,33.925
		C394.21,837.904,136.429,507.315,64.05,414.499c-13.402,9.078-18.973,26.085-8.75,44.351
		c101.184,186.119,202.133,371.141,303.887,556.847c9.57,17.464,24.156,30.642,36.414,45.72c5.605,0,11.207,0,16.809,0
		c10.262-7.539,21.691-15.844,30.605-26.475c214.641-256.134,426.852-513.748,643.301-768.469
		C1152.835,188.182,1156.546,156.716,1144.761,142.897z"></path>
	<path fill="rgb(66, 111, 40)" d="M951.331,336.525c0,0-10.016,10.418-27.527,28.654c-17.613,18.141-42.77,44.056-72.957,75.162
		c-30.359,30.937-65.773,67.026-103.719,105.693c-38.09,38.512-78.723,79.586-119.352,120.668
		c-40.648,41-81.297,82.008-119.402,120.446c-9.547,9.601-18.93,19.039-28.113,28.279c-2.313,2.304-4.605,4.594-6.887,6.876
		c-2.164,2.4-4.32,4.778-6.453,7.149c-4.309,4.756-8.711,9.32-13.172,13.745c-4.504,4.38-9.168,8.548-14.199,12.229
		c-5.035,3.585-10.574,6.972-17.203,7.76c-3.266,0.567-6.77-0.258-9.762-1.62c-1.473-0.729-2.727-1.788-4.047-2.701l-3.195-3.416
		c-3.434-4.477-6.801-8.864-10.098-13.164c-26.242-34.5-48.113-63.242-63.418-83.371c-15.207-20.209-23.895-31.753-23.895-31.753
		s9.105,11.213,25.047,30.841c15.832,19.709,38.453,47.869,65.598,81.654c7.125,7.643,12.59,20.703,23.211,18.708
		c5.055-0.641,10.086-3.645,14.703-7.104c4.645-3.526,9.07-7.612,13.383-11.964c4.273-4.396,8.531-8.967,12.691-13.738
		c2.086-2.393,4.188-4.808,6.301-7.229c2.234-2.319,4.488-4.646,6.75-6.986c9.113-9.336,18.422-18.87,27.895-28.559
		c37.945-38.733,78.418-80.051,118.895-121.36c40.883-40.854,81.77-81.699,120.098-119.998
		c38.539-38.07,74.512-73.608,105.348-104.066c30.996-30.295,56.832-55.541,74.914-73.21
		C940.94,346.567,951.331,336.525,951.331,336.525z" style="fill: rgb(99, 161, 64);"></path>
</g>
</svg>