<svg width="23" height="23" viewBox="0 0 23 23" fill="none" xmlns="http://www.w3.org/2000/svg"><path fill-rule="evenodd" clip-rule="evenodd" d="M9 .58V9h12V.58c0-.32-.256-.58-.571-.58H9.57A.576.576 0 009 .58zm2.871 1.514h3.159a.68.68 0 01.674.686.68.68 0 01-.674.685H11.87a.68.68 0 01-.674-.685.68.68 0 01.675-.686zm6.257 3.433h-6.257a.68.68 0 00-.674.686.68.68 0 00.675.685h6.256a.68.68 0 00.675-.685.68.68 0 00-.675-.686zM8.803 10h12.394c.996 0 1.803.817 1.803 1.825v9.35A1.814 1.814 0 0121.197 23H8.803A1.814 1.814 0 017 21.175v-9.35C7 10.817 7.807 10 8.803 10zm2.14 9.921h.902a.68.68 0 00.676-.684.68.68 0 00-.676-.684h-.901a.68.68 0 00-.676.684.68.68 0 00.676.684zm.902-2.737h-.901a.68.68 0 01-.676-.684.68.68 0 01.676-.684h.901a.68.68 0 01.676.684.68.68 0 01-.676.684zm-.901-2.737h.901a.68.68 0 00.676-.684.68.68 0 00-.676-.684h-.901a.68.68 0 00-.676.684.68.68 0 00.676.684zm4.507 5.474h-.902a.68.68 0 01-.676-.684.68.68 0 01.676-.684h.902a.68.68 0 01.676.684.68.68 0 01-.676.684zm-.902-2.737h.902a.68.68 0 00.676-.684.68.68 0 00-.676-.684h-.902a.68.68 0 00-.676.684.68.68 0 00.676.684zm.902-2.737h-.902a.68.68 0 01-.676-.684.68.68 0 01.676-.684h.902a.68.68 0 01.676.684.68.68 0 01-.676.684zm2.704 5.474h.901a.68.68 0 00.676-.684.68.68 0 00-.676-.684h-.901a.68.68 0 00-.676.684.68.68 0 00.676.684zm.901-2.737h-.901a.68.68 0 01-.676-.684.68.68 0 01.676-.684h.901a.68.68 0 01.676.684.68.68 0 01-.676.684zm-.901-2.737h.901a.68.68 0 00.676-.684.68.68 0 00-.676-.684h-.901a.68.68 0 00-.676.684.68.68 0 00.676.684zM4.11 10H1.89C.846 10 0 10.817 0 11.825v9.35C0 22.183.846 23 1.89 23h2.22C5.154 23 6 22.183 6 21.175v-9.35C6 10.817 5.154 10 4.11 10z" fill="#fff"/></svg>