<svg width="13" height="19" viewBox="0 0 13 19" fill="none" xmlns="http://www.w3.org/2000/svg">
<path fill-rule="evenodd" clip-rule="evenodd" d="M0 6.33335C0 2.84121 2.91597 0 6.5 0C10.084 0 13 2.84121 13 6.33331C13 7.38165 12.731 8.42112 12.2216 9.33995L6.85546 18.7959C6.78404 18.9219 6.64796 19 6.5 19C6.35204 19 6.21596 18.9219 6.14454 18.7959L0.780379 9.34306C0.269 8.42112 0 7.38169 0 6.33335ZM3.25 6.33333C3.25 8.07941 4.70797 9.5 6.5 9.5C8.29203 9.5 9.75 8.07941 9.75 6.33333C9.75 4.58726 8.29203 3.16667 6.5 3.16667C4.70797 3.16667 3.25 4.58726 3.25 6.33333Z" fill="white"/>
</svg>
