<?xml version="1.0" encoding="utf-8"?>
<!-- Generator: Adobe Illustrator 23.0.1, SVG Export Plug-In . SVG Version: 6.00 Build 0)  -->
<svg version="1.1" id="Layer_1" xmlns="http://www.w3.org/2000/svg" xmlns:xlink="http://www.w3.org/1999/xlink" x="0px" y="0px"
	 viewBox="0 0 32 32" style="enable-background: new 0 0 32 32;" xml:space="preserve">

<g>
	<g>
		<path class="st0" d="M19.1,9.7c6.2,0,11.2,4.9,11.2,10.9c0,6.1-5,11-11.2,11c-6.2,0-11.2-4.9-11.2-10.9
			C7.8,14.7,12.9,9.7,19.1,9.7z M19.1,28.3c4.3,0,7.7-3.4,7.8-7.5c0.1-3.8-3.2-7.7-7.7-7.7c-4.3,0-7.7,3.3-7.8,7.5
			C11.3,25.2,15.4,28.4,19.1,28.3z" fill="white"/>
		<path class="st0" d="M20.9,3.9c0,0.8,0,1.6,0,2.5c0,0.5-0.2,0.7-0.7,0.7c-0.7,0-1.3,0-2,0c-0.5,0-0.7-0.2-0.7-0.7
			c0-1.6,0-3.3,0-4.9c0-0.6,0.2-0.8,0.8-0.7c0.6,0,1.3,0,1.9,0c0.6,0,0.8,0.2,0.8,0.8C20.9,2.3,20.9,3.1,20.9,3.9
			C20.9,3.9,20.9,3.9,20.9,3.9z" fill="white"/>
		<path class="st0" d="M2.6,9.4c0.3,0.1,0.6,0.2,0.8,0.4C4.7,10.5,6,11.3,7.3,12c0.6,0.3,0.7,0.6,0.3,1.1c-0.4,0.5-0.7,1.1-1,1.7
			c-0.2,0.4-0.5,0.5-0.9,0.2c-1.4-0.8-2.8-1.6-4.2-2.4c-0.6-0.3-0.8-0.7-0.4-1.3c0.4-0.5,0.6-1,0.9-1.6c0.1-0.2,0.2-0.4,0.2-0.7
			C2.4,9.2,2.5,9.3,2.6,9.4z" fill="white"/>
		<path class="st0" d="M13.8,8.1c-0.2,0.1-0.4,0.1-0.6,0.2c-0.7,0.4-1.3,0.7-1.9,1.1c-0.4,0.2-0.7,0.1-0.9-0.3
			C9.5,7.8,8.7,6.4,7.9,5C7.6,4.4,7.6,4.1,8.3,3.8c0.6-0.3,1.1-0.6,1.7-0.9c0.3-0.2,0.6-0.2,0.8,0.2c0.9,1.5,1.8,3,2.7,4.5
			c0.1,0.1,0.1,0.2,0.1,0.4C13.6,8,13.7,8,13.8,8.1z" fill="white"/>
		<path class="st0" d="M21.7,20.7c0,1.5-1,2.5-2.5,2.5c-1.5,0-2.6-1-2.6-2.5c0-1.5,1.1-2.5,2.6-2.5C20.6,18.2,21.7,19.3,21.7,20.7z"
			fill="white"/>
	</g>
</g>
</svg>
